<?xml version="1.0" encoding="utf-8"?>
<!-- Generator: Adobe Illustrator 28.1.0, SVG Export Plug-In . SVG Version: 6.00 Build 0)  -->
<svg version="1.1" id="Layer_1" xmlns="http://www.w3.org/2000/svg" xmlns:xlink="http://www.w3.org/1999/xlink" x="0px" y="0px"
	 viewBox="0 0 500 500" style="enable-background:new 0 0 500 500;" xml:space="preserve">
<style type="text/css">
	.st0{fill:#6A81A8;}
</style>
<g>
	<path class="st0" d="M13.37,46.08H114.2c31.45,0,55.34,8.86,71.69,26.57c16.35,17.71,24.52,43.59,24.52,77.63
		c0,21.19-3.56,38.73-10.68,52.62c-7.12,13.9-18.26,26.05-33.41,36.47c30.99,17.37,46.48,49.33,46.48,95.87
		c0,34.56-7.98,61.26-23.93,80.11c-15.95,18.85-40.5,28.27-73.66,28.27H13.37V305.55c14.47,27.27,32.18,40.9,53.15,40.9
		c9.46,0,16.97-3.34,22.56-10.03c5.58-6.68,8.37-15.76,8.37-27.22c0-14.41-3.62-25.92-10.85-34.52
		c-7.24-8.6-16.95-12.89-29.14-12.89c-12.3,0-27,4.78-44.09,14.33v-70.34c11.96,4.86,24.89,7.29,38.79,7.29
		c13.21,0,23.64-3.99,31.27-11.98c7.63-7.99,11.45-18.76,11.45-32.3c0-11.81-2.85-21.23-8.54-28.27
		c-5.7-7.03-13.33-10.55-22.9-10.55c-10.03,0-19.48,3.69-28.37,11.07c-8.89,7.38-16.12,17.93-21.7,31.65V46.08z"/>
	<path class="st0" d="M279.45,443.62V46.08h214.48v99.78h-99.12v72.16h73.49v99.78h-73.49v125.83H279.45z"/>
</g>
</svg>
