<svg width="407" height="310" viewBox="0 0 407 310" fill="none" xmlns="http://www.w3.org/2000/svg">
<path d="M406.525 12.1992H262.397V206.706H406.525V12.1992Z" fill="#FFF5DB"/>
<path d="M366.023 76.9977C381.14 76.9977 393.395 64.7428 393.395 49.6256C393.395 34.5083 381.14 22.2534 366.023 22.2534C350.906 22.2534 338.651 34.5083 338.651 49.6256C338.651 64.7428 350.906 76.9977 366.023 76.9977Z" fill="white"/>
<path d="M366.126 54.9562C371.391 54.9562 375.658 50.6883 375.658 45.4237C375.658 40.159 371.391 35.8911 366.126 35.8911C360.861 35.8911 356.593 40.159 356.593 45.4237C356.593 50.6883 360.861 54.9562 366.126 54.9562Z" fill="#FFD99F"/>
<path fill-rule="evenodd" clip-rule="evenodd" d="M342.604 63.8008C349.923 59.2106 366.232 52.6701 388.23 65.6184C383.258 72.5093 375.16 76.9987 366.019 76.9987C356.099 76.9987 347.403 71.7093 342.604 63.8008Z" fill="#FFD99F"/>
<path fill-rule="evenodd" clip-rule="evenodd" d="M366.633 35.9044C371.373 36.1537 375.198 39.8709 375.621 44.5624C367.505 43.114 366.654 37.8988 366.633 35.9044ZM356.639 44.4933C357.106 39.6676 361.18 35.8911 366.125 35.8911C366.272 35.8911 366.416 35.8943 366.561 35.9008C365.475 41.7788 359.624 43.8251 356.639 44.4933Z" fill="black"/>
<path fill-rule="evenodd" clip-rule="evenodd" d="M322.788 58.3175H273.886V65.3812H322.788V58.3175ZM318.699 43.4347H273.886V50.4984H318.699V43.4347ZM328.374 28.6116H273.886V35.6755H328.374V28.6116Z" fill="#FFD99F"/>
<path fill-rule="evenodd" clip-rule="evenodd" d="M365.744 131.004H293.359V136.87H365.744V131.004ZM352.798 119.277H293.359V125.142H352.798V119.277ZM365.744 107.073H293.359V112.939H365.744V107.073Z" fill="#FFD99F"/>
<path d="M365.744 144.354H293.359V150.22H365.744V144.354Z" fill="#FFD99F"/>
<path fill-rule="evenodd" clip-rule="evenodd" d="M368.851 192.806H296.467V198.67H368.851V192.806ZM352.761 180.603H296.467V186.467H352.761V180.603Z" fill="#FFD99F"/>
<path d="M386.908 84.939H273.688V95.4908H386.908V84.939Z" fill="#FFD99F"/>
<path d="M389.399 163.369H276.178V173.921H389.399V163.369Z" fill="#FFD99F"/>
<path d="M273.843 6.20239H129.715V200.709H273.843V6.20239Z" fill="#CAF2EF"/>
<path d="M233.338 71.0021C248.456 71.0021 260.711 58.7472 260.711 43.63C260.711 28.5127 248.456 16.2578 233.338 16.2578C218.221 16.2578 205.966 28.5127 205.966 43.63C205.966 58.7472 218.221 71.0021 233.338 71.0021Z" fill="white"/>
<path fill-rule="evenodd" clip-rule="evenodd" d="M210.91 59.3167C217.653 54.4779 236.317 44.0243 255.949 59.0525C251.019 66.2639 242.728 71.0015 233.338 71.0015C224.066 71.0015 215.865 66.3806 210.91 59.3167Z" fill="#8ABBB8"/>
<path d="M234.151 46.0305C239.496 46.0305 243.829 41.6975 243.829 36.3525C243.829 31.0075 239.496 26.6746 234.151 26.6746C228.806 26.6746 224.473 31.0075 224.473 36.3525C224.473 41.6975 228.806 46.0305 234.151 46.0305Z" fill="#8ABBB8"/>
<path d="M250.754 45.134C254.642 45.134 257.794 41.9822 257.794 38.0941C257.794 34.2061 254.642 31.0542 250.754 31.0542C246.866 31.0542 243.714 34.2061 243.714 38.0941C243.714 41.9822 246.866 45.134 250.754 45.134Z" fill="black"/>
<path fill-rule="evenodd" clip-rule="evenodd" d="M224.477 36.7016C224.475 36.586 224.473 36.4695 224.473 36.3525C224.473 31.0109 228.808 26.6743 234.151 26.6743C239.492 26.6743 243.827 31.0109 243.827 36.3525C243.827 36.6691 243.814 36.9823 243.782 37.2912C236.538 36.3256 234.542 29.9504 234.542 29.9504C232.182 35.6055 227.48 36.658 224.477 36.7016Z" fill="black"/>
<path fill-rule="evenodd" clip-rule="evenodd" d="M187.755 52.3204H141.205V59.3842H187.755V52.3204ZM195.693 37.4377H141.205V44.5014H195.693V37.4377ZM184.271 22.6145H141.205V29.6784H184.271V22.6145Z" fill="#8ABBB8"/>
<path fill-rule="evenodd" clip-rule="evenodd" d="M233.51 122.526H161.125V128.391H233.51V122.526ZM233.51 110.798H161.125V116.663H233.51V110.798ZM233.51 98.595H161.125V104.46H233.51V98.595Z" fill="#8ABBB8"/>
<path fill-rule="evenodd" clip-rule="evenodd" d="M233.51 180.655H161.125V186.52H233.51V180.655ZM233.51 168.929H161.125V174.793H233.51V168.929ZM233.51 156.726H161.125V162.59H233.51V156.726Z" fill="#8ABBB8"/>
<path d="M254.228 78.9412H141.007V89.493H254.228V78.9412Z" fill="#8ABBB8"/>
<path d="M254.228 138.253H141.007V148.805H254.228V138.253Z" fill="#8ABBB8"/>
<path d="M144.128 0H0V194.506H144.128V0Z" fill="#EDE9FE"/>
<path d="M103.626 64.7985C118.743 64.7985 130.998 52.5436 130.998 37.4263C130.998 22.3091 118.743 10.0542 103.626 10.0542C88.5088 10.0542 76.2539 22.3091 76.2539 37.4263C76.2539 52.5436 88.5088 64.7985 103.626 64.7985Z" fill="white"/>
<path fill-rule="evenodd" clip-rule="evenodd" d="M79.8354 50.9647C84.8555 44.6473 93.6495 40.4548 103.65 40.4548C113.632 40.4548 122.412 44.6315 127.436 50.9297C122.728 59.2094 113.825 64.7995 103.626 64.7995C93.4426 64.7995 84.5502 59.2259 79.8354 50.9647Z" fill="#C4B8F3"/>
<path fill-rule="evenodd" clip-rule="evenodd" d="M100.084 40.6351C101.252 40.5163 102.443 40.4551 103.651 40.4551C105.317 40.4551 106.95 40.5714 108.538 40.7949C108.267 42.3752 107.205 43.4955 105.988 43.9997L109.134 64.2442C107.354 64.6085 105.513 64.7997 103.627 64.7997C101.997 64.7997 100.399 64.6568 98.8457 64.3826L102.965 44.0151C100.95 43.3103 100.293 41.5494 100.084 40.6351Z" fill="black"/>
<path d="M103.509 37.2551C108.78 37.2551 113.053 32.9821 113.053 27.7111C113.053 22.44 108.78 18.167 103.509 18.167C98.2384 18.167 93.9653 22.44 93.9653 27.7111C93.9653 32.9821 98.2384 37.2551 103.509 37.2551Z" fill="#C4B8F3"/>
<path fill-rule="evenodd" clip-rule="evenodd" d="M93.9634 27.6808C93.9796 22.4274 98.2498 18.167 103.507 18.167C108.775 18.167 113.052 22.4435 113.052 27.7111C113.052 28.1241 113.025 28.531 112.974 28.9296C106.629 28.2408 103.953 21.552 103.953 21.552C101.665 26.4185 96.6384 27.4742 93.9634 27.6808Z" fill="black"/>
<path fill-rule="evenodd" clip-rule="evenodd" d="M46.3458 46.1173H11.4883V53.181H46.3458V46.1173ZM65.9761 31.2345H11.4883V38.2983H65.9761V31.2345ZM65.9761 16.4114H11.4883V23.4753H65.9761V16.4114Z" fill="#C4B8F3"/>
<path fill-rule="evenodd" clip-rule="evenodd" d="M103.792 116.323H31.4077V122.188H103.792V116.323ZM103.792 104.595H31.4077V110.46H103.792V104.595ZM103.792 92.3918H31.4077V98.2569H103.792V92.3918Z" fill="#C4B8F3"/>
<path fill-rule="evenodd" clip-rule="evenodd" d="M103.792 174.453H31.4077V180.317H103.792V174.453ZM103.792 162.726H31.4077V168.59H103.792V162.726ZM103.792 150.523H31.4077V156.387H103.792V150.523Z" fill="#C4B8F3"/>
<path d="M124.509 72.7385H11.2881V83.2904H124.509V72.7385Z" fill="#C4B8F3"/>
<path d="M124.509 132.05H11.2881V142.602H124.509V132.05Z" fill="#C4B8F3"/>
<path d="M159.696 90.2225C173.228 88.2001 181.66 69.5862 178.53 48.6474C175.401 27.7085 161.894 12.3737 148.363 14.3962C134.832 16.4186 126.399 35.0324 129.529 55.9713C132.659 76.9101 146.165 92.2449 159.696 90.2225Z" fill="white"/>
<path fill-rule="evenodd" clip-rule="evenodd" d="M132.764 68.2799C138.43 62.2355 146.48 57.8865 155.912 56.477C164.137 55.2479 172.189 56.4368 179.137 59.4573C178.51 75.6433 170.823 88.5588 159.693 90.2224C149.005 91.8201 138.317 82.5643 132.764 68.2799Z" fill="#C4B8F3"/>
<path fill-rule="evenodd" clip-rule="evenodd" d="M156.103 90.3572L155.984 61.8311C153.096 61.2006 151.729 58.7507 151.199 57.452C152.727 57.0447 154.299 56.7172 155.916 56.4758C158.14 56.1432 160.356 55.9876 162.539 55.9978C162.616 58.3684 161.507 60.2224 160.019 61.2046L168.431 86.1232C165.868 88.3077 162.928 89.7385 159.696 90.2213C158.497 90.4008 157.296 90.4432 156.103 90.3572Z" fill="black"/>
<path d="M154.833 51.8161C161.877 50.7632 166.406 43.6463 164.948 35.9201C163.489 28.1939 156.597 22.7841 149.552 23.837C142.508 24.8899 137.979 32.0068 139.437 39.733C140.895 47.4592 147.788 52.869 154.833 51.8161Z" fill="#C4B8F3"/>
<path fill-rule="evenodd" clip-rule="evenodd" d="M139.431 39.6889C138 31.9853 142.528 24.8874 149.554 23.8372C156.594 22.7851 163.493 28.1992 164.95 35.9204C165.064 36.5257 165.142 37.1275 165.184 37.7218C156.513 37.9798 151.087 28.7098 151.087 28.7098C149.375 36.3001 142.949 38.8517 139.431 39.6889Z" fill="black"/>
<path fill-rule="evenodd" clip-rule="evenodd" d="M158.303 91.4326L164.247 132.484C164.453 133.913 165.782 134.905 167.21 134.698C168.64 134.491 169.632 133.163 169.424 131.734L163.481 90.6827C163.273 89.2538 161.946 88.2615 160.516 88.4684C159.089 88.6754 158.097 90.0035 158.303 91.4326Z" fill="#7B26A2"/>
<path fill-rule="evenodd" clip-rule="evenodd" d="M159.552 100.048L158.303 91.4322C158.098 90.0033 159.089 88.675 160.519 88.4682C161.948 88.2613 163.276 89.2533 163.481 90.6825L164.423 97.1865C162.605 98.7775 160.975 99.6431 159.552 100.048Z" fill="black"/>
<path fill-rule="evenodd" clip-rule="evenodd" d="M159.25 87.9743C154.531 88.6185 149.876 86.7512 145.789 83.2178C139.135 77.4637 134.023 67.3839 132.399 55.4855C130.775 43.5872 132.998 32.5063 137.865 25.1794C140.856 20.6796 144.84 17.6328 149.559 16.9886C150.99 16.7933 151.994 15.4731 151.799 14.0425C151.604 12.6119 150.282 11.609 148.851 11.8044C142.711 12.6426 137.397 16.4279 133.508 22.2835C128.055 30.4894 125.396 42.8681 127.215 56.1933C129.034 69.5188 134.914 80.7317 142.367 87.1756C147.683 91.7745 153.818 93.9968 159.958 93.1585C161.389 92.9632 162.393 91.6428 162.198 90.2122C162.002 88.7816 160.681 87.7789 159.25 87.9743Z" fill="#7B26A2"/>
<path fill-rule="evenodd" clip-rule="evenodd" d="M149.562 16.9879C154.283 16.3434 158.939 18.2107 163.026 21.7441C169.679 27.4982 174.791 37.5778 176.415 49.4761C178.04 61.3745 175.817 72.4557 170.949 79.7825C167.959 84.2823 163.974 87.3291 159.253 87.9736C157.822 88.169 156.82 89.4888 157.016 90.9194C157.211 92.35 158.53 93.3532 159.961 93.1578C166.104 92.3192 171.415 88.5343 175.307 82.6784C180.759 74.4727 183.417 62.094 181.598 48.7686C179.779 35.4434 173.9 24.2303 166.448 17.7863C161.129 13.1877 154.997 10.9651 148.855 11.8037C147.424 11.9991 146.422 13.3191 146.617 14.7497C146.812 16.1803 148.131 17.1833 149.562 16.9879Z" fill="#7B26A2"/>
<path fill-rule="evenodd" clip-rule="evenodd" d="M189.133 201.92C189.133 201.92 147.165 281.754 138.04 301.671C138.04 301.671 127.836 302.744 123.204 309.268H193.548L210.529 279.688C210.529 279.688 223.118 296.279 234.47 301.671C234.47 301.671 227.901 305.544 227.074 309.268H291.705L245.573 237.28C245.573 237.28 278.642 175.269 245.573 157.267C236.256 152.195 213.363 153.176 189.133 201.92Z" fill="#E7E7E7"/>
<path fill-rule="evenodd" clip-rule="evenodd" d="M206.076 174.626L193.943 202.216C184.918 222.743 187.232 246.489 200.052 264.889L200.117 264.981L250.235 244.556L251.224 246.103L201.176 266.501C206.686 274.391 211.787 281.439 214.441 284.431C214.488 284.483 214.529 284.539 214.565 284.598C212.072 281.723 210.527 279.689 210.527 279.689L209.362 281.716C206.343 277.751 202.344 272.137 198.198 266.178C194.49 260.856 191.631 255.1 189.639 249.104L165.509 247.219L165.913 246.44L166.412 245.478L189.052 247.248C184.568 232.295 185.414 216.004 191.877 201.308L199.885 183.096C201.976 179.957 204.042 177.144 206.076 174.626ZM246.31 238.435L246.301 238.455C246.301 238.455 242.354 232.204 240.046 228.551C239.813 228.185 239.845 227.713 240.12 227.379C240.396 227.044 240.854 226.927 241.256 227.085L249.004 230.113C247.017 234.569 245.572 237.281 245.572 237.281L246.31 238.435Z" fill="#444444"/>
<path fill-rule="evenodd" clip-rule="evenodd" d="M307.684 44.0601C310.304 41.7746 314.048 37.5785 314.791 35.3924C315.872 32.2136 313.605 31.7803 312.388 32.7305C307.323 36.6859 300.393 39.7434 300.393 39.7434C287.361 45.4157 255.2 80.3355 255.2 80.3355C236.3 98.8003 206.415 100.09 198.126 100.075C195.287 100.062 192.48 100.686 189.915 101.901C181.115 106.088 175.79 114.869 175.79 114.869C175.79 114.869 172.432 111.271 169.492 109.636C168.266 108.958 166.742 109.171 165.748 110.158C162.914 109.631 160.112 111.215 159.103 113.914C158.877 114.522 158.689 115.08 158.597 115.507C158.597 115.507 155.964 116.562 155.828 119.413C155.828 119.413 152.726 120.702 152.712 123.732C152.712 123.732 148.103 128.476 152.712 133.11C152.712 133.11 155.853 134.956 156.614 130.913C156.614 130.913 157.743 167.605 158.296 185.587C158.488 191.763 161.286 197.568 166.001 201.563C171.809 206.486 180.16 207.01 186.539 202.852C186.966 202.575 187.377 202.308 187.767 202.053C190.599 200.208 193.031 197.81 194.915 195.001C198.033 190.345 202.025 182.683 202.405 173.524V154.487C202.405 154.487 217.146 160.374 227.572 137.908C227.572 137.908 234.554 139.084 244.025 136.793C249.69 135.423 256.248 132.813 262.736 127.967C267.27 124.59 271.179 120.442 274.282 115.713C280.347 106.478 295.983 82.6413 300.393 75.7839C300.393 75.7839 305.767 67.9064 310.381 63.9366C310.381 63.9366 314.886 68.2772 318.584 59.128C318.584 59.128 320.362 54.813 315.482 52.8339C315.482 52.8339 315.841 48.0128 311.212 47.9477C311.672 44.6544 310.053 43.9084 307.684 44.0601Z" fill="#2D2D2D"/>
<path fill-rule="evenodd" clip-rule="evenodd" d="M270.942 64.0972C275.628 66.8733 284.656 73.1763 294.371 85.0496C287.849 95.0383 278.618 109.109 274.28 115.714C271.177 120.442 267.268 124.59 262.734 127.968C256.246 132.813 249.689 135.424 244.023 136.794C234.552 139.084 227.57 137.908 227.57 137.908C217.144 160.375 202.403 154.488 202.403 154.488V173.524C202.024 182.683 198.031 190.345 194.913 195.001C193.029 197.81 190.597 200.208 187.766 202.053C187.375 202.309 186.964 202.575 186.537 202.853C180.158 207.01 171.807 206.486 165.999 201.563C161.284 197.569 158.486 191.763 158.295 185.587L157.159 148.682H172.562C172.275 144.773 172.514 124.427 174.126 119.229C174.756 117.194 175.386 115.691 176.073 114.425C177.283 112.59 182.296 105.525 189.913 101.902C192.478 100.686 195.285 100.062 198.124 100.075C206.413 100.09 236.298 98.8006 255.199 80.3357C255.199 80.3357 262.174 72.7626 270.942 64.0972Z" fill="#505050"/>
<path fill-rule="evenodd" clip-rule="evenodd" d="M172.522 147.928H172.578V183.765C172.578 184.029 172.373 184.246 172.109 184.257C171.847 184.268 171.621 184.072 171.598 183.81L168.437 148.682H172.563C172.547 148.475 172.533 148.223 172.522 147.928ZM202.404 155.56L201.085 127.201C201.079 127.027 201.198 126.874 201.37 126.842C201.539 126.81 201.709 126.909 201.763 127.074C203.118 131.488 205.897 141.574 207.69 155.161C204.509 155.328 202.404 154.488 202.404 154.488V155.56ZM227.14 138.815C228.12 136.268 231.469 125.758 225.22 114.371C225.08 114.119 225.15 113.802 225.383 113.631C225.616 113.46 225.939 113.489 226.139 113.698C229.12 116.854 233.851 123.78 237.272 137.954C231.417 138.556 227.571 137.908 227.571 137.908C227.429 138.216 227.284 138.519 227.14 138.815Z" fill="#2D2D2D"/>
<path fill-rule="evenodd" clip-rule="evenodd" d="M156.834 129.932C156.691 130.792 156.398 131.745 156.398 131.745L153.704 130.302C153.261 130.073 153.087 129.528 153.316 129.085C153.546 128.642 154.09 128.468 154.533 128.697L156.834 129.932ZM153.406 121.438C153.722 121.364 154.072 121.322 154.456 121.331C156.177 121.371 158.764 122.482 161.851 127.238C162.125 127.656 162.005 128.216 161.587 128.488C161.169 128.759 160.609 128.64 160.336 128.222C157.791 124.3 155.833 123.17 154.413 123.137C153.313 123.112 152.697 123.822 152.697 123.822L152.71 123.732C152.715 122.811 153.004 122.05 153.406 121.438ZM156.439 117.385C156.784 117.341 157.177 117.334 157.617 117.388C159.236 117.587 161.677 118.676 164.773 122.51C165.087 122.898 165.026 123.467 164.638 123.78C164.249 124.093 163.68 124.033 163.369 123.645C158.353 117.435 155.827 119.413 155.827 119.413C155.865 118.595 156.109 117.925 156.439 117.385ZM159.291 113.462C159.668 113.415 160.094 113.397 160.566 113.431C162.31 113.559 164.758 114.415 167.458 117.508C167.786 117.883 167.747 118.454 167.372 118.782C166.998 119.11 166.426 119.072 166.099 118.696C162.377 114.436 159.385 115.184 158.597 115.488C158.694 115.064 158.877 114.514 159.101 113.914C159.157 113.76 159.223 113.609 159.291 113.462ZM167.494 109.279C168.73 110.088 170.428 111.501 171.97 113.815C172.246 114.23 172.133 114.791 171.719 115.068C171.304 115.344 170.742 115.232 170.466 114.817C168.298 111.562 165.575 110.127 165.747 110.159C166.234 109.674 166.849 109.376 167.494 109.279ZM310.379 63.9368C309.875 64.3703 314.69 58.988 314.69 58.988C315.634 58.2054 316.699 59.3152 316.02 60.2108L311.824 64.7734C310.937 64.4756 310.379 63.9368 310.379 63.9368ZM315.306 51.1141C315.539 52.0523 315.48 52.8341 315.48 52.8341C315.584 52.8759 313.71 53.1625 312.714 53.6879C310.851 54.6709 309.324 56.1807 309.324 56.1807C308.97 56.5312 308.396 56.5278 308.046 56.173C307.696 55.8185 307.701 55.246 308.055 54.8956C308.055 54.8956 309.774 53.1968 311.872 52.0903C312.971 51.5095 314.173 51.1107 315.306 51.1141ZM311.212 46.0556C311.311 46.5608 311.316 47.1795 311.212 47.9315C310.094 48.281 307.936 49.2213 305.183 51.703C304.813 52.037 304.241 52.0074 303.907 51.6371C303.573 51.2667 303.602 50.6952 303.973 50.3614C307.373 47.2956 310.018 46.3458 311.212 46.0556ZM309.909 41.9304C309.139 42.7253 308.374 43.459 307.683 44.0603C307.789 44.0535 303.275 45.7611 300.888 47.3019C300.468 47.5722 299.91 47.4516 299.639 47.0327C299.368 46.6138 299.488 46.0545 299.908 45.784C303.329 43.5766 306.926 42.1081 309.909 41.9304Z" fill="#C7C6C6"/>
<path d="M198.512 90.7062C205.716 90.7062 211.557 84.8659 211.557 77.6616C211.557 70.4572 205.716 64.6169 198.512 64.6169C191.308 64.6169 185.467 70.4572 185.467 77.6616C185.467 84.8659 191.308 90.7062 198.512 90.7062Z" fill="#717171"/>
<path fill-rule="evenodd" clip-rule="evenodd" d="M201.405 64.938C207.218 66.2552 211.56 71.4546 211.56 77.6606C211.56 84.8601 205.714 90.7053 198.515 90.7053C198.305 90.7053 198.093 90.7001 197.885 90.6901C195.776 85.9354 199.007 83.9952 199.874 83.5738C200.407 84.0205 201.096 84.2896 201.848 84.2896C203.539 84.2896 204.912 82.9296 204.912 81.2542C204.912 79.5791 203.539 78.2191 201.848 78.2191C201.168 78.2191 200.538 78.4401 200.028 78.8139C195.15 72.1663 199.197 67.0171 201.405 64.938Z" fill="black"/>
<path fill-rule="evenodd" clip-rule="evenodd" d="M214.463 79.6215C214.327 79.584 215.337 79.0482 215.596 78.8768C216.314 78.4039 217.021 77.9019 217.687 77.3575C219.702 75.7068 220.973 73.7221 222.371 71.5647C227.117 64.237 234.757 56.8287 243.965 56.4665C260.253 55.8256 269.282 74.2636 266.91 88.4118C265.113 99.1432 253.734 104.764 243.561 103.265C237.518 102.375 231.686 98.895 227.63 94.3735C225.248 91.7171 223.45 88.6015 221.488 85.6372C219.722 82.9658 217.861 80.0067 214.463 79.6215Z" fill="black"/>
</svg>
