<svg width="509" height="325" viewBox="0 0 509 325" fill="none" xmlns="http://www.w3.org/2000/svg">
<path fill-rule="evenodd" clip-rule="evenodd" d="M185.409 222.506C185.409 216.248 180.327 211.168 174.07 211.168H12.0969C5.83868 211.168 0.757812 216.248 0.757812 222.506V312.391C0.757812 318.648 5.83868 323.728 12.0969 323.728H174.07C180.327 323.728 185.409 318.648 185.409 312.391V222.506Z" fill="#8ABBB8"/>
<path fill-rule="evenodd" clip-rule="evenodd" d="M32.7912 301.801H13.7354V315.273H32.7912V301.801ZM101.768 276.626H13.6914V295.741H101.768V276.626ZM171.871 276.626H126.662V295.741H171.871V276.626Z" fill="white"/>
<path d="M185.409 242.556H0.757812V269.001H185.409V242.556Z" fill="black"/>
<path fill-rule="evenodd" clip-rule="evenodd" d="M29.7701 288.471C29.6963 287.258 29.8328 285.918 30.1028 284.668C30.5208 282.736 31.2756 281.031 31.9791 280.276C32.5878 279.623 33.2536 279.488 33.8083 279.676C34.6018 279.943 35.0708 280.653 35.1573 281.663C35.2816 283.111 34.5403 285.306 34.2661 285.933C33.6303 287.383 32.8233 288.468 31.8943 289.323C32.0268 289.951 32.2531 290.488 32.6773 290.808C33.1273 291.148 33.7721 291.176 34.6493 290.921C35.1143 290.786 36.0708 290.186 36.9991 289.446C36.8428 288.511 37.0078 287.513 37.3743 286.771C37.9391 285.628 38.9396 285.123 39.8691 285.436C40.4998 285.648 40.8428 286.013 41.0201 286.408C41.2516 286.926 41.2063 287.616 40.7726 288.361C40.4818 288.861 39.9968 289.423 39.4236 289.973C39.7096 290.203 40.1303 290.316 40.6971 290.306C41.3996 290.293 42.4648 289.753 43.6351 289.133C45.7168 288.033 48.0378 286.613 49.3971 286.246C50.5761 285.926 51.3306 286.313 51.6431 286.981C51.8871 287.501 52.1151 287.878 52.3506 288.128C52.4641 288.251 52.5621 288.336 52.6758 288.358C52.8281 288.386 52.9753 288.313 53.1361 288.238C53.3436 288.138 53.5553 288.006 53.7763 287.858C55.3096 286.841 57.1606 285.418 59.6891 286.278C60.7333 286.633 61.0181 287.598 60.8341 288.791C60.7818 289.131 60.6986 289.488 60.6471 289.818C60.6393 289.871 60.6328 289.933 60.6286 289.993C60.7511 289.986 60.8861 289.963 61.0298 289.936C61.4176 289.866 61.8453 289.743 62.2776 289.608C63.3033 289.293 64.3521 288.941 65.0696 288.896C72.6793 288.401 80.3401 288.528 87.9411 287.878C88.4911 287.831 88.9756 288.241 89.0226 288.791C89.0698 289.341 88.6613 289.823 88.1116 289.871C80.4968 290.523 72.8226 290.396 65.1991 290.891C64.4578 290.938 63.3161 291.406 62.2781 291.693C61.3391 291.956 60.4603 292.066 59.8593 291.911C58.7963 291.633 58.4783 290.696 58.6793 289.458C58.7261 289.171 58.7943 288.866 58.8438 288.571C58.8661 288.438 58.8768 288.246 58.8813 288.121C57.9628 287.863 57.1931 288.108 56.5166 288.468C55.9193 288.788 55.3831 289.193 54.8821 289.526C53.9728 290.128 53.1141 290.473 52.3073 290.323C51.5766 290.186 50.7616 289.641 49.9993 288.168C49.8673 288.198 49.6943 288.243 49.5526 288.296C49.0798 288.473 48.5233 288.748 47.9223 289.066C45.9371 290.116 43.5121 291.601 41.8798 292.098C41.4516 292.231 41.0646 292.298 40.7351 292.306C39.3936 292.331 38.4836 291.896 37.8851 291.273C36.8101 292.078 35.7391 292.688 35.2058 292.841C33.5373 293.326 32.3298 293.051 31.4741 292.406C30.9026 291.976 30.4741 291.353 30.1886 290.593C29.9048 290.766 29.6141 290.928 29.3176 291.081C27.4801 292.026 25.4013 292.621 23.3726 293.641C22.8796 293.888 22.2781 293.688 22.0303 293.196C21.7826 292.701 21.9818 292.101 22.4751 291.853C24.1126 291.031 25.7818 290.481 27.3336 289.806C28.1948 289.431 29.0186 289.016 29.7701 288.471ZM33.1731 282.006C32.8953 282.453 32.6338 283.071 32.4088 283.773C32.2758 284.188 32.1568 284.633 32.0578 285.091C31.9771 285.466 31.9088 285.848 31.8576 286.233C32.0656 285.898 32.2583 285.531 32.4346 285.128C32.6211 284.703 33.0966 283.366 33.1656 282.271C33.1713 282.181 33.1741 282.091 33.1731 282.006Z" fill="black"/>
<path d="M508.46 173.988H232.553V323.556H508.46V173.988Z" fill="#EDE9FE"/>
<path fill-rule="evenodd" clip-rule="evenodd" d="M421.919 306.78C422.938 303.052 424.568 299.316 426.829 296.188C427.281 295.564 428.042 294.353 428.918 293.554C429.734 292.81 430.661 292.426 431.558 292.624C432.593 292.851 433.125 293.609 433.237 294.682C433.4 296.276 432.394 298.768 432.004 299.471C430.092 302.928 426.975 305.741 423.664 308.013C423.52 308.624 423.424 309.261 423.468 309.85C423.525 310.603 423.857 311.258 424.78 311.516C426.667 312.039 428.763 311.496 430.766 310.49C431.534 310.104 432.287 309.65 433.01 309.15C433.027 308.838 433.058 308.55 433.088 308.318C433.503 305.01 435.378 301.904 437.63 299.51C437.983 299.135 439.151 297.801 440.107 297.404C440.925 297.064 441.661 297.181 442.198 297.867C442.695 298.502 442.813 299.401 442.578 300.407C442.182 302.098 440.773 304.18 440.186 304.99C439.011 306.607 437.172 308.526 435.033 310.149C435.05 310.254 435.076 310.355 435.114 310.444C435.135 310.496 435.148 310.553 435.201 310.573C436.109 310.915 437.089 310.536 438.049 309.968C439.849 308.905 441.536 307.081 442.593 306.105C443.051 305.682 443.806 304.892 444.601 304.414C445.369 303.951 446.181 303.779 446.903 304.034C447.789 304.348 448.119 304.96 448.121 305.756C448.121 306.219 447.955 306.797 447.711 307.408C447.492 307.952 447.211 308.534 447.049 309.078C446.997 309.252 446.955 309.418 446.949 309.575C446.942 309.685 446.984 309.772 447.11 309.822C447.674 310.045 448.162 309.896 448.614 309.597C449.267 309.163 449.854 308.462 450.439 307.755C451.29 306.727 452.137 305.684 453.044 305.095C453.843 304.578 454.69 304.366 455.615 304.595C456.94 304.925 457.187 306.025 456.838 307.48C456.728 307.945 456.565 308.454 456.488 308.929C456.445 309.213 456.344 309.506 456.628 309.632C457.067 309.826 457.481 309.735 457.887 309.554C458.274 309.381 458.653 309.126 459.031 308.86C459.727 308.371 460.419 307.838 461.124 307.496C461.715 307.207 462.32 307.042 462.938 307.061C463.463 307.079 463.808 307.245 464.048 307.443C464.343 307.688 464.515 308.011 464.583 308.401C464.62 308.606 464.622 308.84 464.605 309.084C464.596 309.213 464.587 309.414 464.581 309.558C466.624 309.824 468.906 309.185 470.947 309.049C474.424 308.816 477.935 309.021 481.397 308.709C481.947 308.659 482.433 309.065 482.481 309.615C482.532 310.165 482.126 310.651 481.576 310.702C478.099 311.016 474.572 310.811 471.08 311.044C468.861 311.193 466.366 311.85 464.157 311.518C463.651 311.444 463.317 311.247 463.084 311.018C462.82 310.758 462.667 310.438 462.604 310.071C462.56 309.82 462.564 309.538 462.584 309.257C462.588 309.207 462.593 309.143 462.597 309.08C462.204 309.146 461.827 309.366 461.445 309.61C460.788 310.032 460.14 310.558 459.478 310.963C458.311 311.682 457.104 312.031 455.816 311.459C454.886 311.046 454.524 310.348 454.465 309.508C454.424 308.936 454.566 308.268 454.736 307.622C454.814 307.323 454.897 307.031 454.95 306.76C454.963 306.688 454.974 306.59 454.978 306.509C454.555 306.468 454.184 306.703 453.815 307.009C453.182 307.533 452.591 308.294 451.979 309.03C451.261 309.898 450.519 310.732 449.718 311.265C448.717 311.928 447.623 312.175 446.379 311.684C445.258 311.243 444.906 310.451 444.95 309.493C444.978 308.86 445.247 308.109 445.554 307.376C445.703 307.024 445.858 306.675 445.973 306.35C446.019 306.221 446.061 306.046 446.087 305.915C446.021 305.931 445.954 305.964 445.886 305.994C445.703 306.073 445.522 306.19 445.347 306.319C444.786 306.73 444.28 307.269 443.948 307.576C442.818 308.62 440.993 310.551 439.066 311.69C437.538 312.594 435.939 312.991 434.494 312.443C433.95 312.238 433.566 311.845 433.324 311.337C432.78 311.679 432.226 311.996 431.665 312.277C429.186 313.521 426.578 314.091 424.245 313.443C422.104 312.847 421.438 311.221 421.471 309.429C421.248 309.565 421.028 309.695 420.808 309.826C419.372 310.673 417.809 311.734 416.201 312.236C416.214 312.231 416.255 312.216 416.255 312.216C416.255 312.216 416 312.304 415.882 312.314C415.703 312.334 415.55 312.308 415.434 312.269C415.207 312.192 415.042 312.057 414.924 311.891C414.605 311.441 414.712 310.817 415.162 310.499C415.304 310.398 415.463 310.339 415.622 310.32C417.082 309.861 418.486 308.873 419.791 308.104C420.5 307.688 421.211 307.247 421.919 306.78ZM416.51 310.675L416.524 310.693L416.521 310.688L416.51 310.675ZM416.473 310.634L416.489 310.649L416.484 310.645L416.473 310.634ZM416.436 310.597L416.451 310.61L416.445 310.603L416.436 310.597ZM416.399 310.562L416.406 310.568L416.401 310.564L416.399 310.562ZM440.698 299.377C440.509 299.501 440.244 299.682 440.081 299.835C439.636 300.25 439.256 300.702 439.088 300.881C437.396 302.679 435.921 304.918 435.303 307.347C436.635 306.166 437.77 304.914 438.566 303.816C439 303.216 439.974 301.823 440.456 300.52C440.587 300.16 440.685 299.811 440.696 299.497C440.698 299.455 440.701 299.416 440.698 299.377ZM424.62 304.835C426.875 303.048 428.898 300.957 430.253 298.504C430.515 298.035 431.152 296.546 431.246 295.348C431.262 295.158 431.262 294.979 431.238 294.818C431.222 294.713 431.231 294.6 431.128 294.578C430.997 294.547 430.873 294.606 430.749 294.674C430.583 294.763 430.424 294.89 430.266 295.032C429.498 295.734 428.848 296.813 428.451 297.36C426.827 299.604 425.557 302.184 424.62 304.835Z" fill="black"/>
<path fill-rule="evenodd" clip-rule="evenodd" d="M386.575 276.123V273.742C386.575 272.831 387.247 272.092 388.075 272.092C388.902 272.092 389.575 272.831 389.575 273.742V277.586C389.575 278.496 388.902 279.236 388.075 279.236H388.072C387.865 279.357 387.628 279.423 387.375 279.423H257.03C256.767 279.423 256.52 279.348 256.305 279.219C255.48 279.214 254.812 278.477 254.812 277.569V273.742C254.812 272.831 255.485 272.092 256.312 272.092C257.14 272.092 257.812 272.831 257.812 273.742V276.123H386.575ZM438.34 240.385V237.286C438.34 236.376 439.012 235.636 439.84 235.636C440.667 235.636 441.34 236.376 441.34 237.286V241.13C441.34 241.488 441.237 241.818 441.062 242.087C441.035 242.973 440.375 243.685 439.562 243.685H256.42C256.402 243.685 256.385 243.685 256.367 243.685C256.347 243.685 256.33 243.685 256.312 243.685C255.485 243.685 254.812 242.945 254.812 242.035V238.207C254.812 237.297 255.485 236.557 256.312 236.557C257.14 236.557 257.812 237.297 257.812 238.207V240.385H438.34ZM255.445 209.022L255.552 205.181C255.58 204.27 256.273 203.556 257.1 203.583C257.928 203.613 258.577 204.375 258.552 205.282L258.492 207.427H438.695V205.233C438.695 204.323 439.367 203.583 440.195 203.583C441.022 203.583 441.695 204.323 441.695 205.233V209.077C441.695 209.987 441.022 210.727 440.195 210.727C440.177 210.727 440.157 210.727 440.14 210.727C440.122 210.727 440.105 210.727 440.087 210.727H256.95C256.942 210.727 256.932 210.727 256.925 210.727H256.917C256.767 210.724 256.625 210.697 256.49 210.65C256.255 210.567 256.045 210.424 255.878 210.237L255.87 210.229L255.862 210.221L255.857 210.215C255.692 210.023 255.567 209.789 255.5 209.528C255.462 209.379 255.442 209.22 255.445 209.058V209.047C255.445 209.038 255.445 209.03 255.445 209.022Z" fill="#B4A1FF"/>
<path fill-rule="evenodd" clip-rule="evenodd" d="M481.188 281.022V272.09C481.188 271.262 481.86 270.59 482.688 270.59C483.515 270.59 484.188 271.262 484.188 272.09V282.522C484.188 283.352 483.518 284.022 482.688 284.022H408.338C407.508 284.022 406.838 283.352 406.838 282.522V272.09C406.838 271.262 407.51 270.59 408.338 270.59C409.165 270.59 409.838 271.262 409.838 272.09V281.022H481.188Z" fill="#B4A1FF"/>
<path fill-rule="evenodd" clip-rule="evenodd" d="M409.838 261.342V272.09C409.838 272.917 409.165 273.59 408.338 273.59C407.51 273.59 406.838 272.917 406.838 272.09V259.842C406.838 259.015 407.508 258.342 408.338 258.342H482.688C483.518 258.342 484.188 259.015 484.188 259.842V272.09C484.188 272.917 483.515 273.59 482.688 273.59C481.86 273.59 481.188 272.917 481.188 272.09V261.342H409.838Z" fill="#B4A1FF"/>
<path fill-rule="evenodd" clip-rule="evenodd" d="M415.229 277.829H422.866C423.694 277.829 424.366 277.157 424.366 276.329C424.366 275.502 423.694 274.829 422.866 274.829H415.229C414.401 274.829 413.729 275.502 413.729 276.329C413.729 277.157 414.401 277.829 415.229 277.829ZM441.696 277.829H449.331C450.158 277.829 450.831 277.157 450.831 276.329C450.831 275.502 450.158 274.829 449.331 274.829H441.696C440.868 274.829 440.196 275.502 440.196 276.329C440.196 277.157 440.868 277.829 441.696 277.829ZM428.461 277.829H436.099C436.926 277.829 437.599 277.157 437.599 276.329C437.599 275.502 436.926 274.829 436.099 274.829H428.461C427.633 274.829 426.961 275.502 426.961 276.329C426.961 277.157 427.633 277.829 428.461 277.829ZM454.929 277.829H462.566C463.393 277.829 464.066 277.157 464.066 276.329C464.066 275.502 463.393 274.829 462.566 274.829H454.929C454.101 274.829 453.429 275.502 453.429 276.329C453.429 277.157 454.101 277.829 454.929 277.829ZM468.164 277.829H475.799C476.626 277.829 477.299 277.157 477.299 276.329C477.299 275.502 476.626 274.829 475.799 274.829H468.164C467.336 274.829 466.664 275.502 466.664 276.329C466.664 277.157 467.336 277.829 468.164 277.829Z" fill="#B4A1FF"/>
<path d="M473.813 226.485C485.424 226.485 494.836 217.073 494.836 205.463C494.836 193.853 485.424 184.441 473.813 184.441C462.203 184.441 452.791 193.853 452.791 205.463C452.791 217.073 462.203 226.485 473.813 226.485Z" fill="#B4A1FF"/>
<path fill-rule="evenodd" clip-rule="evenodd" d="M473.114 194.205L473.256 184.45C473.441 184.445 473.626 184.442 473.811 184.442C474.298 184.442 474.778 184.46 475.256 184.492L475.114 194.23C476.904 194.207 478.768 194.06 480.686 193.747C479.426 190.107 477.883 186.972 476.566 184.622C477.428 184.735 478.279 184.9 479.106 185.115C480.306 187.397 481.594 190.205 482.671 193.367C484.826 192.89 487.039 192.197 489.279 191.232C489.749 191.742 490.194 192.277 490.611 192.832C488.129 193.945 485.674 194.74 483.281 195.277C483.429 195.772 483.568 196.272 483.701 196.782C484.428 199.535 484.944 202.482 485.094 205.535L494.831 205.825C494.821 206.5 494.776 207.165 494.703 207.822L485.136 207.537C485.116 210.935 484.614 214.435 483.419 217.925C485.251 218.442 487.114 219.125 488.994 220.002C488.494 220.522 487.969 221.017 487.419 221.485C485.831 220.785 484.258 220.232 482.706 219.8C481.878 221.79 480.811 223.77 479.469 225.715C478.516 225.982 477.536 226.182 476.534 226.312C478.341 224.022 479.714 221.677 480.726 219.312C478.676 218.872 476.676 218.637 474.751 218.56L474.633 226.47C474.361 226.48 474.086 226.487 473.811 226.487C473.416 226.487 473.023 226.475 472.633 226.455L472.751 218.535C470.351 218.57 468.091 218.835 466.023 219.23C467.123 221.495 468.553 223.822 470.373 226.205C469.346 226.037 468.346 225.792 467.376 225.48C466.013 223.502 464.903 221.562 464.013 219.667C462.393 220.06 460.923 220.52 459.638 220.985C459.101 220.492 458.589 219.975 458.106 219.43C459.564 218.872 461.281 218.302 463.211 217.82C461.773 214.242 461.109 210.837 460.984 207.652C460.974 207.372 460.966 207.095 460.964 206.82L452.818 206.577C452.801 206.21 452.791 205.837 452.791 205.465C452.791 205.167 452.796 204.872 452.808 204.577L461.016 204.82C461.243 201.085 462.193 197.695 463.458 194.73C460.848 194.035 458.716 193.22 457.216 192.567C457.644 192.015 458.101 191.487 458.581 190.98C460.026 191.582 461.974 192.292 464.306 192.895C465.999 189.497 468.038 186.765 469.693 184.845C470.688 184.647 471.708 184.52 472.748 184.467C471.163 186.072 468.459 189.15 466.294 193.36C468.354 193.787 470.649 194.11 473.114 194.205ZM483.128 207.477L474.919 207.235L474.781 216.565C476.929 216.647 479.163 216.915 481.456 217.427C482.621 214.085 483.111 210.73 483.128 207.477ZM462.966 206.88C462.969 207.11 462.974 207.342 462.984 207.575C463.101 210.645 463.766 213.922 465.188 217.37C467.501 216.9 470.056 216.58 472.781 216.542L472.921 207.175L462.966 206.88ZM481.308 195.667C479.163 196.035 477.078 196.202 475.083 196.225L474.948 205.235L483.081 205.475C482.933 202.62 482.446 199.865 481.768 197.29C481.623 196.742 481.471 196.2 481.308 195.667ZM465.414 195.205C464.176 198.032 463.241 201.287 463.016 204.88L472.951 205.175L473.083 196.195C470.291 196.09 467.709 195.707 465.414 195.205Z" fill="#EDE9FE"/>
<path fill-rule="evenodd" clip-rule="evenodd" d="M292.867 280.135C293.492 292.59 295.487 303.188 298.847 312.968C301.045 319.43 307.112 323.776 313.937 323.776C313.937 323.783 313.937 323.783 313.937 323.783C319.687 323.783 324.872 320.323 327.077 315.013C330.895 305.84 334.112 294.575 336.415 280.135H292.867Z" fill="#505050"/>
<path fill-rule="evenodd" clip-rule="evenodd" d="M293.273 285.995C293.23 285.513 293.19 285.028 293.15 284.538L304.475 284.748C304.475 284.748 307.073 293.41 309.453 301.105C312.628 311.363 315.658 318.178 322.223 321.123C321.598 321.57 320.935 321.968 320.245 322.308C318.138 323.078 315.53 323.783 313.938 323.783C313.938 323.783 313.938 323.783 313.938 323.775C313.895 323.775 313.85 323.775 313.808 323.775C313.558 323.773 313.31 323.765 313.063 323.753L312.983 323.748C312.878 323.74 312.77 323.735 312.665 323.725L312.588 323.72L312.51 323.713L312.43 323.705C312.405 323.703 312.38 323.7 312.353 323.698L312.31 323.693C312.218 323.685 312.128 323.673 312.035 323.663C311.985 323.658 311.935 323.65 311.885 323.645L311.805 323.635C311.678 323.615 311.548 323.598 311.42 323.578L311.343 323.565C311.318 323.56 311.29 323.555 311.265 323.55L311.188 323.538C311.163 323.533 311.138 323.53 311.11 323.525L311.038 323.51C310.953 323.495 310.868 323.48 310.783 323.463C310.365 323.378 309.953 323.278 309.548 323.16C309.413 323.123 309.28 323.083 309.145 323.04C308.97 322.985 308.795 322.925 308.623 322.865C308.558 322.843 308.493 322.818 308.428 322.795L308.283 322.74C307.278 322.358 306.318 321.878 305.415 321.308L305.288 321.225C305.238 321.193 305.188 321.16 305.14 321.128L305.033 321.055L304.905 320.97L304.865 320.943C304.44 320.648 304.03 320.335 303.638 320C303.5 319.885 303.365 319.768 303.233 319.648L303.12 319.543L303.008 319.44C302.97 319.405 302.935 319.37 302.898 319.335L302.805 319.245C302.295 318.748 301.818 318.215 301.378 317.653C301.15 317.36 300.93 317.06 300.723 316.753C300.658 316.653 300.593 316.555 300.528 316.455C300.448 316.33 300.37 316.203 300.293 316.075L300.268 316.035L300.243 315.993C300.065 315.695 299.898 315.39 299.738 315.08L299.703 315.01L299.678 314.958C299.465 314.53 299.27 314.093 299.093 313.643L299.065 313.568C299.025 313.463 298.985 313.358 298.948 313.253C298.913 313.158 298.88 313.063 298.848 312.968L298.773 312.75L298.75 312.68L298.7 312.535L298.67 312.45L298.625 312.315L298.595 312.228L298.553 312.098L298.523 312.008L298.478 311.875L298.45 311.788L298.405 311.648L298.378 311.57L298.323 311.395L298.308 311.353L298.235 311.133L298.218 311.073L298.165 310.915L298.14 310.833L298.095 310.695L298.068 310.605L298.025 310.473L297.998 310.383L297.955 310.25L297.928 310.16L297.885 310.023L297.86 309.94L297.81 309.783L297.79 309.72L297.725 309.498L297.71 309.455L297.658 309.278L297.633 309.198L297.59 309.055L297.565 308.968L297.523 308.833L297.498 308.74L297.458 308.608L297.43 308.518L297.39 308.38L297.365 308.293L297.323 308.145L297.3 308.07L297.238 307.853L297.235 307.848L297.173 307.623L297.153 307.55L297.108 307.4L297.085 307.313L297.045 307.175L297.02 307.083L296.983 306.948L296.958 306.855L296.92 306.72L296.895 306.63L296.855 306.485L296.835 306.403L296.785 306.225L296.773 306.178L296.713 305.953L296.695 305.888L296.653 305.725L296.63 305.64L296.593 305.498L296.568 305.405L296.533 305.27L296.51 305.175L296.475 305.04L296.45 304.948L296.415 304.805L296.393 304.718L296.35 304.558L296.335 304.49L296.278 304.26L296.265 304.215L296.22 304.033L296.2 303.95L296.165 303.803L296.143 303.71L296.108 303.573L296.085 303.475L296.053 303.34L296.03 303.243L295.995 303.105L295.975 303.013L295.94 302.86L295.92 302.78L295.87 302.568L295.865 302.548L295.813 302.318L295.795 302.238L295.76 302.088L295.74 301.993L295.708 301.853L295.685 301.755L295.655 301.618L295.633 301.52L295.603 301.383L295.583 301.285L295.55 301.14L295.53 301.05L295.493 300.878L295.48 300.815L295.43 300.585L295.415 300.51L295.38 300.35L295.36 300.255L295.333 300.113L295.31 300.013L295.283 299.875L295.263 299.773L295.235 299.638L295.213 299.535L295.185 299.398L295.165 299.298L295.135 299.145L295.118 299.06L295.073 298.828L295.06 298.76L295.028 298.59L295.008 298.493L294.98 298.35L294.96 298.245L294.935 298.113L294.915 298.003L294.89 297.87L294.87 297.763L294.845 297.628L294.825 297.523L294.8 297.383L294.783 297.28L294.75 297.105L294.738 297.043L294.73 296.995L294.698 296.808L294.678 296.703L294.655 296.565L294.635 296.453L294.613 296.323L294.593 296.208L294.57 296.08L294.55 295.965L294.53 295.838L294.51 295.72L294.488 295.593L294.47 295.478L294.448 295.338L294.43 295.233L294.393 295L294.373 294.885L294.353 294.755L294.333 294.633L294.315 294.51L294.295 294.385L294.275 294.265L294.258 294.14L294.238 294.02L294.218 293.893L294.2 293.775L294.18 293.645L294.165 293.53L294.145 293.398L294.13 293.293L294.11 293.163L294.09 293.028L294.075 292.92L294.055 292.783L294.04 292.673L294.02 292.535L294.005 292.425L293.985 292.288L293.973 292.178L293.953 292.038L293.938 291.933L293.918 291.788L293.905 291.69L293.885 291.538L293.878 291.473L293.853 291.298L293.828 291.093L293.823 291.06L293.803 290.895L293.79 290.81L293.773 290.653L293.76 290.56L293.74 290.403L293.73 290.31L293.71 290.153L293.7 290.063L293.68 289.9L293.67 289.82L293.65 289.645L293.645 289.603L293.62 289.403C293.613 289.323 293.603 289.243 293.595 289.163L293.57 288.958L293.568 288.918L293.545 288.733L293.54 288.665L293.52 288.485L293.513 288.415L293.493 288.235L293.485 288.165L293.465 287.98L293.46 287.923L293.44 287.725L293.438 287.705C293.405 287.393 293.375 287.083 293.345 286.768L293.343 286.745L293.323 286.533L293.318 286.49L293.3 286.283L293.295 286.24L293.278 286.028L293.273 285.995Z" fill="#BCBCBC"/>
<path fill-rule="evenodd" clip-rule="evenodd" d="M157.244 280.436C157.869 292.891 159.864 303.489 163.224 313.269C165.422 319.731 171.489 324.076 178.314 324.076C178.314 324.084 178.314 324.084 178.314 324.084C184.064 324.084 189.249 320.624 191.454 315.314C195.272 306.141 198.489 294.876 200.792 280.436H157.244Z" fill="#E7E7E7"/>
<path fill-rule="evenodd" clip-rule="evenodd" d="M157.334 282.071C157.302 281.529 157.272 280.986 157.244 280.436H200.792C200.582 281.746 200.367 283.026 200.144 284.284L193.027 284.166C191.709 288.389 183.734 313.891 179.817 317.991C176.609 321.346 174.942 322.461 173.287 323.264C168.692 321.736 164.939 318.159 163.277 313.421L163.274 313.416L163.254 313.354L163.224 313.269C162.727 311.821 162.259 310.354 161.822 308.866C161.762 308.666 161.704 308.466 161.647 308.264C161.487 307.714 161.334 307.159 161.182 306.599C161.152 306.481 161.119 306.364 161.087 306.244C160.912 305.581 160.739 304.911 160.574 304.236C160.434 303.666 160.297 303.091 160.167 302.514C159.982 301.711 159.807 300.901 159.639 300.081C159.522 299.509 159.409 298.929 159.299 298.346C159.254 298.099 159.207 297.851 159.162 297.601L159.117 297.346C159.052 296.984 158.987 296.619 158.927 296.251C158.814 295.589 158.707 294.919 158.604 294.244L158.564 293.981C158.494 293.526 158.429 293.066 158.364 292.604L158.337 292.399L158.329 292.339C158.104 290.676 157.907 288.984 157.739 287.254L157.714 286.976L157.709 286.931C157.662 286.419 157.614 285.904 157.572 285.384C157.482 284.294 157.402 283.191 157.334 282.071Z" fill="#505050"/>
<path fill-rule="evenodd" clip-rule="evenodd" d="M365.312 163.792C367.167 163.272 368.692 162.8 369.072 162.563C373.532 159.787 377.297 155.204 379.294 150.003C381.224 144.984 381.707 139.413 379.364 134.486C376.554 138.528 372.097 141.274 368.034 141.595C363.509 141.952 359.159 139.739 356.974 133.337C354.399 125.79 359.414 119.782 366.907 118.276C369.774 117.7 373.057 117.872 376.314 119.037C376.114 117.092 375.632 115.19 374.924 113.359C373.059 108.533 369.744 104.178 365.807 100.811C364.799 99.9993 364.642 98.5233 365.452 97.5163C366.262 96.5093 367.739 96.3503 368.747 97.1616C373.554 100.805 377.664 105.672 380.164 111.154C381.827 114.801 382.742 118.722 382.692 122.774C384.772 124.553 386.697 126.879 388.327 129.826C392.409 137.208 392.474 145.826 389.954 153.744C387.477 161.536 382.279 168.52 375.987 172.97C375.199 173.53 372.147 174.92 368.607 176.275C369.037 178.377 369.434 180.567 369.802 182.857C376.652 225.522 376.384 265.38 363.787 305.575C360.214 316.905 349.707 324.612 337.829 324.612C337.827 324.615 337.827 324.615 337.827 324.615C327.279 324.615 317.902 317.89 314.522 307.895C310.457 295.882 305.692 281.795 305.692 281.795H190.219C190.219 281.795 184.272 298.617 179.834 311.175C176.987 319.23 169.372 324.615 160.829 324.615H160.827C150.194 324.615 140.963 317.285 138.555 306.927C135.814 295.137 132.711 281.795 132.711 281.795H97.9729C93.9407 281.795 90.1594 279.437 88.7319 275.667C84.2867 263.925 75.4352 233.712 89.5849 198.45C90.6242 195.862 93.3134 194.315 96.1039 194.315C105.359 194.307 125.802 194.307 125.802 194.307C125.802 194.307 128.893 147.226 171.529 122.399L159.932 100.264C159.932 100.264 179.324 92.6241 196.492 114.706C237.407 105.078 273.487 104.043 319.434 117.675C330.189 120.848 339.917 126.8 347.639 134.93C353.014 140.578 357.249 146.236 360.609 152.654C362.417 156.108 363.969 159.782 365.312 163.792ZM374.814 128.804C373.449 127.836 371.994 127.273 370.559 127.094C367.334 126.69 363.904 127.918 364.742 130.94C365.462 133.548 367.189 134.419 369.042 133.845C371.324 133.137 373.584 131.251 374.814 128.804Z" fill="#E7E7E7"/>
<path fill-rule="evenodd" clip-rule="evenodd" d="M189.403 284.102L193.125 272.647C193.305 272.089 193.858 271.737 194.438 271.809C195.02 271.882 195.47 272.357 195.51 272.942L196.12 281.797H190.218L189.403 284.102ZM298.635 281.797L300.565 272.217C300.653 271.792 301.013 271.477 301.448 271.449C301.88 271.419 302.28 271.687 302.42 272.099C303.838 276.284 306.065 282.862 306.065 282.862L306.055 282.864L305.693 281.797H298.635ZM343.66 202.117C343.66 169.794 318.798 142.91 286.573 140.389C263.053 138.528 239.67 138.544 216.425 140.384C184.198 142.899 159.33 169.784 159.33 202.109C159.328 202.109 159.328 202.109 159.328 202.109C159.328 235.609 185.963 263.042 219.45 264.027C240.893 264.664 262.255 264.664 283.538 264.034C317.025 263.049 343.66 235.617 343.66 202.117ZM111.358 194.412C113.347 198.842 115.175 204.857 116.427 213.022C116.636 214.384 115.698 215.662 114.335 215.869C112.971 216.079 111.694 215.142 111.484 213.779C110.08 204.622 107.983 198.497 105.826 194.414L109.981 194.412H111.358ZM121.105 194.412C122.678 197.814 124.094 202.152 125.131 207.682C125.385 209.039 124.491 210.347 123.135 210.599C121.779 210.854 120.471 209.959 120.217 208.604C119.004 202.139 117.278 197.597 115.496 194.412H121.105ZM368.605 176.274C369.038 178.377 364.953 162.716 365.313 163.792C367.165 163.272 368.693 162.8 369.073 162.563C369.345 162.393 369.618 162.216 369.885 162.032C370.91 165.349 372.1 169.599 373.15 174.404C371.875 174.972 370.295 175.627 368.605 176.274ZM379.365 134.486C378.905 135.501 383.015 128.651 382.693 122.774C384.285 124.137 385.788 125.82 387.135 127.858C386.475 131.054 385.033 135.18 381.918 139.208C381.633 139.576 381.265 139.844 380.86 140.003C380.685 138.118 380.208 136.26 379.365 134.486ZM376.313 119.036C376.743 124.316 374.473 129.483 374.815 128.803C373.45 127.836 371.995 127.273 370.558 127.093C370.435 127.078 370.313 127.065 370.19 127.054C372.165 123.795 371.848 120.261 371.308 117.993C372.943 118.098 374.633 118.435 376.313 119.036ZM171.5 122.416L173.348 126.106C173.965 127.34 173.465 128.843 172.233 129.461C170.998 130.079 169.495 129.579 168.878 128.345L167.233 125.06C168.61 124.154 170.033 123.272 171.5 122.416ZM198.228 117.591C198.228 117.591 195.798 113.811 196.493 114.706C198.17 114.311 199.84 113.931 201.505 113.564L202.313 114.707C203.108 115.834 202.838 117.395 201.713 118.191C200.585 118.987 199.023 118.718 198.228 117.591Z" fill="#505050"/>
<path d="M94.7359 281.9C102.117 281.9 108.101 262.315 108.101 238.155C108.101 213.996 102.117 194.411 94.7359 194.411C87.3547 194.411 81.3711 213.996 81.3711 238.155C81.3711 262.315 87.3547 281.9 94.7359 281.9Z" fill="#505050"/>
<path fill-rule="evenodd" clip-rule="evenodd" d="M87.5898 218.645V257.668C87.5898 259.045 88.7101 260.168 90.0898 260.168C91.4696 260.168 92.5898 259.045 92.5898 257.668V218.645C92.5898 217.265 91.4696 216.145 90.0898 216.145C88.7101 216.145 87.5898 217.265 87.5898 218.645Z" fill="black"/>
<path fill-rule="evenodd" clip-rule="evenodd" d="M96.8828 218.645V257.668C96.8828 259.045 98.0031 260.168 99.3828 260.168C100.763 260.168 101.883 259.045 101.883 257.668V218.645C101.883 217.265 100.763 216.145 99.3828 216.145C98.0031 216.145 96.8828 217.265 96.8828 218.645Z" fill="black"/>
<path fill-rule="evenodd" clip-rule="evenodd" d="M135.291 183.083C135.237 184.499 135.076 187.532 135.819 190.265C136.75 193.691 138.933 196.653 143.567 196.915C145.476 197.022 148.096 196.775 150.231 194.708C152.058 192.939 153.698 189.599 153.569 183.127L148.569 183.228C148.656 187.574 147.98 189.928 146.754 191.116C145.836 192.003 144.668 191.969 143.848 191.923C141.866 191.81 141.042 190.42 140.644 188.953C140.057 186.794 140.245 184.392 140.288 183.274L135.291 183.083Z" fill="black"/>
<path d="M306.17 121.442H206.996L209.502 132.461H308.676L306.17 121.442Z" fill="black"/>
<path fill-rule="evenodd" clip-rule="evenodd" d="M215.467 140.467C215.789 140.436 216.107 140.409 216.427 140.384C239.672 138.544 263.054 138.528 286.574 140.39C291.312 140.76 295.889 141.657 300.252 143.02V195.245H215.467V140.467Z" fill="#8ABBB8"/>
<path fill-rule="evenodd" clip-rule="evenodd" d="M230.691 139.485C247.959 138.676 265.299 138.873 282.719 140.101C278.329 150.035 268.386 156.974 256.836 156.974C245.049 156.974 234.936 149.747 230.691 139.485Z" fill="#CAF2EF"/>
<path fill-rule="evenodd" clip-rule="evenodd" d="M242.555 195.245V170.89C242.555 167.985 244.91 165.629 247.812 165.629C250.717 165.629 253.072 167.985 253.072 170.89V195.245H242.555ZM260.12 195.245V177.1C260.12 174.197 262.477 171.84 265.38 171.84C268.282 171.84 270.64 174.197 270.64 177.1V195.245H260.12Z" fill="#CAF2EF"/>
<path d="M300.251 53.2383H215.467V126.477H300.251V53.2383Z" fill="#CAF2EF"/>
<path fill-rule="evenodd" clip-rule="evenodd" d="M228.641 126.477C229.773 111.902 241.973 100.412 256.836 100.412C271.698 100.412 283.898 111.902 285.031 126.477H228.641Z" fill="#8ABBB8"/>
<path fill-rule="evenodd" clip-rule="evenodd" d="M273.696 53.2383V73.9903C273.696 76.8928 271.341 79.2495 268.439 79.2495C265.536 79.2495 263.179 76.8928 263.179 73.9903V53.2383H273.696ZM256.131 53.2383V67.7798C256.131 70.6825 253.774 73.039 250.871 73.039C247.969 73.039 245.611 70.6825 245.611 67.7798V53.2383H256.131Z" fill="#8ABBB8"/>
<path d="M215.551 221.289C230.303 221.289 242.262 209.45 242.262 194.847C242.262 180.243 230.303 168.404 215.551 168.404C200.799 168.404 188.84 180.243 188.84 194.847C188.84 209.45 200.799 221.289 215.551 221.289Z" fill="#FFEAB5"/>
<path fill-rule="evenodd" clip-rule="evenodd" d="M215.553 174.222C227.052 174.222 236.388 183.464 236.388 194.847C236.388 206.23 227.052 215.472 215.553 215.472C215.086 215.472 214.707 215.847 214.707 216.31C214.707 216.772 215.086 217.147 215.553 217.147C227.986 217.147 238.08 207.155 238.08 194.847C238.08 182.539 227.986 172.546 215.553 172.546C215.086 172.546 214.707 172.922 214.707 173.384C214.707 173.846 215.086 174.222 215.553 174.222Z" fill="#FAC370"/>
<path fill-rule="evenodd" clip-rule="evenodd" d="M215.55 215.472C204.051 215.472 194.715 206.23 194.715 194.847C194.715 183.464 204.051 174.222 215.55 174.222C216.017 174.222 216.397 173.846 216.397 173.384C216.397 172.922 216.017 172.546 215.55 172.546C203.116 172.546 193.023 182.539 193.023 194.847C193.023 207.155 203.116 217.147 215.55 217.147C216.017 217.147 216.397 216.772 216.397 216.31C216.397 215.847 216.017 215.472 215.55 215.472Z" fill="#FAC370"/>
<path fill-rule="evenodd" clip-rule="evenodd" d="M218.767 221.099L218.221 216.743C218.163 216.284 218.493 215.865 218.957 215.808C219.421 215.751 219.842 216.077 219.901 216.536L220.441 220.846C219.889 220.947 219.331 221.032 218.767 221.099ZM223.762 220.014L222.249 215.594C222.1 215.156 222.337 214.68 222.78 214.531C223.222 214.383 223.703 214.618 223.852 215.056L225.356 219.448C224.833 219.653 224.302 219.842 223.762 220.014ZM200.827 216.906L203.18 213.077C203.422 212.682 203.943 212.556 204.342 212.796C204.742 213.037 204.869 213.552 204.627 213.947L202.267 217.787C201.776 217.508 201.296 217.214 200.827 216.906ZM237.529 209.871L233.641 207.023C233.267 206.748 233.187 206.223 233.465 205.851C233.742 205.48 234.272 205.401 234.648 205.676L238.449 208.461C238.158 208.941 237.85 209.412 237.529 209.871ZM190.166 203.089L194.734 201.053C195.159 200.864 195.662 201.052 195.853 201.473C196.044 201.895 195.854 202.391 195.428 202.581L190.747 204.667C190.537 204.149 190.342 203.623 190.166 203.089ZM241.47 188.433C241.606 188.973 241.726 189.519 241.827 190.071L237.324 191.123C236.87 191.229 236.413 190.95 236.307 190.5C236.198 190.05 236.481 189.598 236.934 189.492L241.47 188.433ZM193.48 179.957L197.505 182.563C197.896 182.816 198.006 183.335 197.75 183.722C197.494 184.109 196.97 184.218 196.579 183.965L192.571 181.369C192.859 180.888 193.163 180.417 193.48 179.957ZM196.107 176.724L199.38 179.107C199.756 179.381 199.837 179.906 199.559 180.278C199.283 180.651 198.752 180.731 198.376 180.457L194.983 177.985C195.343 177.553 195.719 177.133 196.107 176.724ZM230.99 173.272C231.451 173.596 231.901 173.933 232.339 174.285L229.413 177.937C229.122 178.3 228.589 178.36 228.223 178.073C227.858 177.786 227.797 177.258 228.086 176.896L230.99 173.272ZM226.458 170.705C226.974 170.935 227.482 171.18 227.98 171.439L225.916 175.27C225.696 175.678 225.184 175.833 224.771 175.615C224.359 175.398 224.204 174.89 224.424 174.482L226.458 170.705ZM209.562 169.073L210.753 173.279C210.879 173.724 210.616 174.187 210.166 174.311C209.716 174.436 209.249 174.176 209.124 173.731L207.925 169.5C208.463 169.341 209.008 169.199 209.562 169.073Z" fill="#FAC370"/>
<path d="M286.598 254.048C301.35 254.048 313.309 242.209 313.309 227.605C313.309 213.002 301.35 201.163 286.598 201.163C271.846 201.163 259.887 213.002 259.887 227.605C259.887 242.209 271.846 254.048 286.598 254.048Z" fill="#FFEAB5"/>
<path fill-rule="evenodd" clip-rule="evenodd" d="M286.598 206.98C298.097 206.98 307.433 216.222 307.433 227.605C307.433 238.988 298.097 248.23 286.598 248.23C286.131 248.23 285.752 248.605 285.752 249.068C285.752 249.53 286.131 249.906 286.598 249.906C299.031 249.906 309.125 239.913 309.125 227.605C309.125 215.297 299.031 205.305 286.598 205.305C286.131 205.305 285.752 205.68 285.752 206.142C285.752 206.605 286.131 206.98 286.598 206.98Z" fill="#FAC370"/>
<path fill-rule="evenodd" clip-rule="evenodd" d="M286.599 248.23C275.099 248.23 265.763 238.988 265.763 227.605C265.763 216.222 275.099 206.98 286.599 206.98C287.066 206.98 287.445 206.605 287.445 206.142C287.445 205.68 287.066 205.305 286.599 205.305C274.165 205.305 264.072 215.297 264.072 227.605C264.072 239.913 274.165 249.906 286.599 249.906C287.066 249.906 287.445 249.53 287.445 249.068C287.445 248.605 287.066 248.23 286.599 248.23Z" fill="#FAC370"/>
<path fill-rule="evenodd" clip-rule="evenodd" d="M289.812 253.857L289.266 249.501C289.208 249.042 289.538 248.624 290.002 248.566C290.466 248.509 290.887 248.836 290.946 249.295L291.486 253.605C290.934 253.706 290.376 253.79 289.812 253.857ZM294.807 252.773L293.294 248.352C293.145 247.914 293.382 247.438 293.825 247.29C294.267 247.142 294.748 247.377 294.896 247.814L296.401 252.207C295.878 252.411 295.347 252.6 294.807 252.773ZM271.872 249.665L274.224 245.835C274.466 245.44 274.988 245.315 275.387 245.555C275.787 245.795 275.914 246.311 275.672 246.706L273.312 250.546C272.821 250.267 272.341 249.973 271.872 249.665ZM308.573 242.63L304.686 239.782C304.312 239.507 304.232 238.982 304.51 238.61C304.787 238.238 305.317 238.16 305.693 238.435L309.494 241.22C309.203 241.7 308.895 242.17 308.573 242.63ZM261.211 235.847L265.779 233.812C266.204 233.622 266.706 233.81 266.898 234.232C267.089 234.654 266.899 235.15 266.473 235.34L261.791 237.426C261.582 236.908 261.387 236.381 261.211 235.847ZM312.515 221.192C312.651 221.732 312.771 222.278 312.872 222.83L308.369 223.881C307.915 223.987 307.458 223.708 307.351 223.258C307.243 222.808 307.526 222.357 307.979 222.25L312.515 221.192ZM264.525 212.715L268.55 215.321C268.941 215.574 269.051 216.094 268.795 216.481C268.539 216.868 268.015 216.977 267.624 216.723L263.616 214.128C263.904 213.647 264.208 213.176 264.525 212.715ZM267.152 209.483L270.425 211.866C270.801 212.14 270.882 212.665 270.604 213.037C270.328 213.409 269.797 213.489 269.421 213.215L266.028 210.743C266.388 210.312 266.764 209.891 267.152 209.483ZM302.035 206.031C302.496 206.354 302.946 206.692 303.384 207.044L300.458 210.696C300.167 211.058 299.634 211.119 299.268 210.832C298.903 210.544 298.842 210.017 299.131 209.655L302.035 206.031ZM297.503 203.464C298.019 203.693 298.527 203.939 299.024 204.198L296.961 208.029C296.741 208.437 296.228 208.591 295.815 208.374C295.404 208.156 295.249 207.648 295.469 207.241L297.503 203.464ZM280.607 201.832L281.798 206.037C281.924 206.482 281.661 206.945 281.211 207.07C280.761 207.195 280.294 206.935 280.168 206.49L278.97 202.259C279.508 202.1 280.053 201.957 280.607 201.832Z" fill="#FAC370"/>
<path d="M157.754 53.0989C172.506 53.0989 184.465 41.2603 184.465 26.6566C184.465 12.053 172.506 0.214355 157.754 0.214355C143.002 0.214355 131.043 12.053 131.043 26.6566C131.043 41.2603 143.002 53.0989 157.754 53.0989Z" fill="#FFEAB5"/>
<path fill-rule="evenodd" clip-rule="evenodd" d="M157.754 6.0314C169.253 6.0314 178.589 15.2731 178.589 26.6564C178.589 38.0396 169.253 47.2813 157.754 47.2813C157.287 47.2813 156.908 47.6567 156.908 48.1191C156.908 48.5815 157.287 48.9568 157.754 48.9568C170.187 48.9568 180.281 38.9644 180.281 26.6564C180.281 14.3484 170.187 4.35596 157.754 4.35596C157.287 4.35596 156.908 4.7313 156.908 5.19368C156.908 5.65606 157.287 6.0314 157.754 6.0314Z" fill="#FAC370"/>
<path fill-rule="evenodd" clip-rule="evenodd" d="M157.753 47.2813C146.254 47.2813 136.918 38.0396 136.918 26.6564C136.918 15.2731 146.254 6.0314 157.753 6.0314C158.221 6.0314 158.6 5.65606 158.6 5.19368C158.6 4.7313 158.221 4.35596 157.753 4.35596C145.32 4.35596 135.227 14.3484 135.227 26.6564C135.227 38.9644 145.32 48.9568 157.753 48.9568C158.221 48.9568 158.6 48.5815 158.6 48.1191C158.6 47.6567 158.221 47.2813 157.753 47.2813Z" fill="#FAC370"/>
<path fill-rule="evenodd" clip-rule="evenodd" d="M160.968 52.9088L160.422 48.5524C160.364 48.0935 160.694 47.6748 161.158 47.6177C161.622 47.5607 162.043 47.8869 162.102 48.3458L162.642 52.6559C162.091 52.7573 161.532 52.8417 160.968 52.9088ZM165.963 51.8239L164.45 47.4035C164.301 46.9656 164.538 46.4896 164.981 46.3413C165.423 46.1929 165.904 46.4279 166.053 46.8657L167.557 51.2579C167.034 51.4627 166.503 51.6515 165.963 51.8239ZM143.028 48.7163L145.381 44.8867C145.623 44.4916 146.144 44.3659 146.543 44.6062C146.943 44.8465 147.07 45.3622 146.828 45.7572L144.468 49.5971C143.978 49.3181 143.497 49.024 143.028 48.7163ZM179.73 41.6808L175.842 38.8329C175.468 38.5578 175.388 38.0329 175.666 37.6611C175.944 37.2895 176.473 37.2111 176.849 37.486L180.65 40.2709C180.359 40.7511 180.051 41.2214 179.73 41.6808ZM132.367 34.8984L136.935 32.8632C137.36 32.6734 137.863 32.8617 138.054 33.2833C138.245 33.705 138.056 34.2013 137.629 34.3911L132.948 36.4772C132.738 35.959 132.543 35.4327 132.367 34.8984ZM183.671 20.243C183.807 20.7828 183.927 21.329 184.029 21.8811L179.525 22.9324C179.071 23.0387 178.614 22.7594 178.508 22.3095C178.399 21.8595 178.682 21.4079 179.136 21.3017L183.671 20.243ZM135.681 11.7665L139.706 14.3725C140.097 14.6257 140.207 15.1452 139.951 15.5323C139.696 15.9191 139.171 16.0279 138.78 15.7747L134.772 13.1793C135.06 12.6981 135.365 12.2269 135.681 11.7665ZM138.308 8.53421L141.581 10.9171C141.957 11.191 142.038 11.7159 141.76 12.0882C141.485 12.4607 140.953 12.5406 140.577 12.2666L137.184 9.79466C137.544 9.3629 137.92 8.94252 138.308 8.53421ZM173.192 5.08192C173.652 5.40562 174.102 5.74323 174.541 6.09491L171.614 9.74724C171.323 10.1095 170.79 10.1701 170.424 9.88279C170.059 9.59545 169.998 9.06802 170.287 8.70578L173.192 5.08192ZM168.659 2.51512C169.175 2.74449 169.683 2.98978 170.181 3.24931L168.118 7.08025C167.898 7.48822 167.385 7.6427 166.972 7.42523C166.56 7.20758 166.405 6.69975 166.625 6.29178L168.659 2.51512ZM151.763 0.883057L152.955 5.08846C153.08 5.53363 152.817 5.99639 152.367 6.12121C151.917 6.2462 151.45 5.98617 151.325 5.54084L150.126 1.3098C150.665 1.15096 151.21 1.00855 151.763 0.883057Z" fill="#FAC370"/>
<path d="M67.5625 150.36C82.3146 150.36 94.2735 138.521 94.2735 123.918C94.2735 109.314 82.3146 97.4753 67.5625 97.4753C52.8105 97.4753 40.8516 109.314 40.8516 123.918C40.8516 138.521 52.8105 150.36 67.5625 150.36Z" fill="#FFEAB5"/>
<path fill-rule="evenodd" clip-rule="evenodd" d="M67.563 103.293C79.0614 103.293 88.3975 112.535 88.3975 123.918C88.3975 135.301 79.0614 144.543 67.563 144.543C67.096 144.543 66.7168 144.918 66.7168 145.381C66.7168 145.843 67.096 146.218 67.563 146.218C79.9955 146.218 90.0899 136.226 90.0899 123.918C90.0899 111.61 79.9955 101.617 67.563 101.617C67.096 101.617 66.7168 101.993 66.7168 102.455C66.7168 102.918 67.096 103.293 67.563 103.293Z" fill="#FAC370"/>
<path fill-rule="evenodd" clip-rule="evenodd" d="M67.564 144.543C56.0643 144.543 46.7282 135.301 46.7282 123.918C46.7282 112.534 56.0643 103.293 67.564 103.293C68.0311 103.293 68.4102 102.917 68.4102 102.455C68.4102 101.993 68.0311 101.617 67.564 101.617C55.1301 101.617 45.0371 111.61 45.0371 123.918C45.0371 136.226 55.1301 146.218 67.564 146.218C68.0311 146.218 68.4102 145.843 68.4102 145.38C68.4102 144.918 68.0311 144.543 67.564 144.543Z" fill="#FAC370"/>
<path fill-rule="evenodd" clip-rule="evenodd" d="M70.7771 150.17L70.2304 145.814C70.1729 145.355 70.5029 144.936 70.9666 144.879C71.4304 144.822 71.8518 145.148 71.911 145.607L72.451 149.917C71.8992 150.019 71.3407 150.103 70.7771 150.17ZM75.7716 149.085L74.2585 144.665C74.1096 144.227 74.3465 143.751 74.79 143.603C75.2317 143.454 75.7124 143.689 75.8613 144.127L77.3659 148.519C76.843 148.724 76.3115 148.913 75.7716 149.085ZM52.8367 145.977L55.1893 142.148C55.4313 141.753 55.9526 141.627 56.352 141.867C56.7515 142.108 56.8784 142.623 56.6364 143.018L54.277 146.858C53.7862 146.579 53.3056 146.285 52.8367 145.977ZM89.5383 138.942L85.6506 136.094C85.2766 135.819 85.1971 135.294 85.4746 134.922C85.7522 134.551 86.2819 134.472 86.6577 134.747L90.459 137.532C90.1679 138.012 89.8598 138.483 89.5383 138.942ZM42.1758 132.16L46.7438 130.124C47.1686 129.935 47.6713 130.123 47.8625 130.544C48.0538 130.966 47.8642 131.462 47.4377 131.652L42.7563 133.738C42.5464 133.22 42.3518 132.694 42.1758 132.16ZM93.4801 117.504C93.6155 118.044 93.7356 118.59 93.8372 119.142L89.3335 120.194C88.8799 120.3 88.4229 120.021 88.3163 119.571C88.208 119.121 88.4906 118.669 88.9442 118.563L93.4801 117.504ZM45.4897 109.028L49.5144 111.634C49.9054 111.887 50.0154 112.406 49.7598 112.794C49.5042 113.18 48.9796 113.289 48.5886 113.036L44.5808 110.44C44.8685 109.959 45.1732 109.488 45.4897 109.028ZM48.1164 105.795L51.3897 108.178C51.7654 108.452 51.8466 108.977 51.5691 109.349C51.2932 109.722 50.7618 109.802 50.386 109.528L46.9926 107.056C47.3531 106.624 47.7288 106.204 48.1164 105.795ZM83.0002 102.343C83.4606 102.667 83.9108 103.004 84.3491 103.356L81.4228 107.008C81.1317 107.371 80.5986 107.431 80.233 107.144C79.8674 106.857 79.8065 106.329 80.0959 105.967L83.0002 102.343ZM78.4677 99.7764C78.984 100.006 79.4917 100.251 79.9893 100.511L77.9261 104.341C77.7061 104.749 77.1933 104.904 76.7803 104.686C76.369 104.469 76.2134 103.961 76.4334 103.553L78.4677 99.7764ZM61.5717 98.1443L62.7632 102.35C62.8884 102.795 62.6261 103.258 62.1759 103.382C61.7257 103.507 61.2586 103.247 61.1333 102.802L59.935 98.571C60.4732 98.4122 61.0182 98.2698 61.5717 98.1443Z" fill="#FAC370"/>
<path d="M432.533 114.604C447.285 114.604 459.244 102.765 459.244 88.1615C459.244 73.5578 447.285 61.7192 432.533 61.7192C417.781 61.7192 405.822 73.5578 405.822 88.1615C405.822 102.765 417.781 114.604 432.533 114.604Z" fill="#FFEAB5"/>
<path fill-rule="evenodd" clip-rule="evenodd" d="M432.534 67.5363C444.032 67.5363 453.368 76.778 453.368 88.1613C453.368 99.5445 444.032 108.786 432.534 108.786C432.067 108.786 431.688 109.162 431.688 109.624C431.688 110.086 432.067 110.462 432.534 110.462C444.966 110.462 455.061 100.469 455.061 88.1613C455.061 75.8533 444.966 65.8608 432.534 65.8608C432.067 65.8608 431.688 66.2362 431.688 66.6986C431.688 67.1609 432.067 67.5363 432.534 67.5363Z" fill="#FAC370"/>
<path fill-rule="evenodd" clip-rule="evenodd" d="M432.533 108.786C421.033 108.786 411.697 99.5445 411.697 88.1613C411.697 76.778 421.033 67.5363 432.533 67.5363C433 67.5363 433.379 67.1609 433.379 66.6986C433.379 66.2362 433 65.8608 432.533 65.8608C420.099 65.8608 410.006 75.8533 410.006 88.1613C410.006 100.469 420.099 110.462 432.533 110.462C433 110.462 433.379 110.086 433.379 109.624C433.379 109.162 433 108.786 432.533 108.786Z" fill="#FAC370"/>
<path fill-rule="evenodd" clip-rule="evenodd" d="M435.748 114.414L435.201 110.058C435.144 109.599 435.474 109.18 435.937 109.123C436.401 109.066 436.823 109.392 436.882 109.851L437.422 114.161C436.87 114.262 436.311 114.347 435.748 114.414ZM440.742 113.329L439.229 108.909C439.08 108.471 439.317 107.995 439.761 107.846C440.202 107.698 440.683 107.933 440.832 108.371L442.337 112.763C441.814 112.968 441.282 113.157 440.742 113.329ZM417.807 110.221L420.16 106.392C420.402 105.997 420.923 105.871 421.323 106.111C421.722 106.352 421.849 106.867 421.607 107.262L419.248 111.102C418.757 110.823 418.276 110.529 417.807 110.221ZM454.509 103.186L450.621 100.338C450.247 100.063 450.168 99.538 450.445 99.1662C450.723 98.7946 451.253 98.7162 451.628 98.9911L455.43 101.776C455.139 102.256 454.831 102.727 454.509 103.186ZM407.146 96.4035L411.714 94.3684C412.139 94.1785 412.642 94.3668 412.833 94.7884C413.024 95.2101 412.835 95.7064 412.408 95.8962L407.727 97.9823C407.517 97.4641 407.323 96.9378 407.146 96.4035ZM458.451 81.7481C458.586 82.288 458.706 82.8342 458.808 83.3862L454.304 84.4376C453.851 84.5438 453.394 84.2645 453.287 83.8146C453.179 83.3646 453.461 82.9131 453.915 82.8068L458.451 81.7481ZM410.46 73.2716L414.485 75.8776C414.876 76.1308 414.986 76.6504 414.73 77.0374C414.475 77.4243 413.95 77.533 413.559 77.2798L409.551 74.6844C409.839 74.2032 410.144 73.7321 410.46 73.2716ZM413.087 70.0393L416.36 72.4222C416.736 72.6961 416.817 73.221 416.54 73.5933C416.264 73.9658 415.732 74.0457 415.357 73.7718L411.963 71.2998C412.324 70.868 412.7 70.4476 413.087 70.0393ZM447.971 66.5871C448.431 66.9108 448.881 67.2484 449.32 67.6L446.394 71.2524C446.102 71.6146 445.569 71.6753 445.204 71.3879C444.838 71.1006 444.777 70.5731 445.067 70.2109L447.971 66.5871ZM443.438 64.0202C443.955 64.2496 444.462 64.4949 444.96 64.7544L442.897 68.5854C442.677 68.9933 442.164 69.1478 441.751 68.9304C441.34 68.7127 441.184 68.2049 441.404 67.7969L443.438 64.0202ZM426.542 62.3882L427.734 66.5936C427.859 67.0388 427.597 67.5015 427.147 67.6263C426.696 67.7513 426.229 67.4913 426.104 67.046L424.906 62.8149C425.444 62.6561 425.989 62.5137 426.542 62.3882Z" fill="#FAC370"/>
<path fill-rule="evenodd" clip-rule="evenodd" d="M337.272 55.9476V51.7769C337.272 51.0869 337.832 50.5269 338.522 50.5269C339.212 50.5269 339.772 51.0869 339.772 51.7769V55.9476H343.942C344.632 55.9476 345.192 56.5076 345.192 57.1976C345.192 57.8874 344.632 58.4476 343.942 58.4476H339.772V62.6184C339.772 63.3081 339.212 63.8684 338.522 63.8684C337.832 63.8684 337.272 63.3081 337.272 62.6184V58.4476H333.1C332.41 58.4476 331.85 57.8874 331.85 57.1976C331.85 56.5076 332.41 55.9476 333.1 55.9476H337.272Z" fill="#FD9500"/>
<path fill-rule="evenodd" clip-rule="evenodd" d="M133.37 103.259V99.0886C133.37 98.3986 133.93 97.8386 134.62 97.8386C135.31 97.8386 135.87 98.3986 135.87 99.0886V103.259H140.04C140.73 103.259 141.29 103.819 141.29 104.509C141.29 105.199 140.73 105.759 140.04 105.759H135.87V109.93C135.87 110.62 135.31 111.18 134.62 111.18C133.93 111.18 133.37 110.62 133.37 109.93V105.759H129.197C128.507 105.759 127.947 105.199 127.947 104.509C127.947 103.819 128.507 103.259 129.197 103.259H133.37Z" fill="#FD9500"/>
<path fill-rule="evenodd" clip-rule="evenodd" d="M418.903 146.022V141.851C418.903 141.161 419.463 140.601 420.153 140.601C420.843 140.601 421.403 141.161 421.403 141.851V146.022H425.573C426.263 146.022 426.823 146.582 426.823 147.272C426.823 147.961 426.263 148.522 425.573 148.522H421.403V152.692C421.403 153.382 420.843 153.942 420.153 153.942C419.463 153.942 418.903 153.382 418.903 152.692V148.522H414.73C414.04 148.522 413.48 147.961 413.48 147.272C413.48 146.582 414.04 146.022 414.73 146.022H418.903Z" fill="#FD9500"/>
</svg>
