<svg width="1016" height="449" viewBox="0 0 1016 449" fill="none" xmlns="http://www.w3.org/2000/svg">
<rect width="1016" height="433" transform="translate(0 8)" fill="#E7E7E7"/>
<path d="M550 266H466V182H550M550 170H466C462.817 170 459.765 171.264 457.515 173.515C455.264 175.765 454 178.817 454 182V266C454 269.182 455.264 272.235 457.515 274.485C459.765 276.736 462.817 278 466 278H550C553.183 278 556.235 276.736 558.485 274.485C560.736 272.235 562 269.182 562 266V182C562 178.817 560.736 175.765 558.485 173.515C556.235 171.264 553.183 170 550 170ZM519.76 225.74L503.26 246.98L491.5 232.82L475 254H541L519.76 225.74Z" fill="#C7C6C6"/>
</svg>
