<svg width="1410" height="470" viewBox="0 0 1410 470" fill="none" xmlns="http://www.w3.org/2000/svg">
<g filter="url(#filter0_d_3376_29143)">
<g clip-path="url(#clip0_3376_29143)">
<path d="M27 43C27 31.9543 35.9543 23 47 23H1367C1378.05 23 1387 31.9543 1387 43V423C1387 434.046 1378.05 443 1367 443H47C35.9543 443 27 434.046 27 423V43Z" fill="#C7C6C6"/>
<rect width="544" height="340.328" transform="translate(843 102.672)" fill="#C7C6C6"/>
<path d="M747.085 467.521C734.532 470.203 722.268 473.781 710.634 478.154C708.829 478.833 707.951 481.042 708.67 483.089C709.388 485.135 711.425 486.248 713.242 485.566C724.587 481.301 736.553 477.81 748.807 475.193C807.34 462.688 865.161 472.124 892.684 498.672C893.58 499.537 894.726 499.849 895.764 499.627C896.475 499.476 897.136 499.074 897.633 498.427C898.857 496.836 898.625 494.367 897.117 492.911C867.501 464.344 808.61 454.378 747.085 467.521Z" fill="#BBBABD"/>
<path d="M894.969 465.622C856.661 445.817 800.175 441.186 743.867 453.235C705.811 461.377 671.316 476.104 644.112 495.823C642.528 496.971 642.16 499.385 643.289 501.216C644.419 503.046 646.618 503.601 648.198 502.454C674.696 483.246 708.375 468.885 745.589 460.922C800.497 449.173 855.348 453.57 892.318 472.682C893.04 473.055 893.8 473.146 894.502 472.996C895.551 472.771 896.465 472.006 896.904 470.838C897.636 468.888 896.77 466.553 894.969 465.622Z" fill="#BBBABD"/>
<path d="M878.199 447.381C878.717 447.523 879.228 447.532 879.706 447.43C880.996 447.154 882.045 446.064 882.305 444.538C882.664 442.445 881.404 440.325 879.494 439.804C848.357 431.294 812.004 429.055 774.362 433.33C772.443 433.546 771.14 435.463 771.451 437.609C771.762 439.754 773.569 441.317 775.487 441.1C812.336 436.915 847.853 439.088 878.199 447.381Z" fill="#BBBABD"/>
<path d="M641.632 486.65C641.982 486.575 642.323 486.439 642.645 486.235C671.012 468.311 705.501 454.668 742.385 446.779C744.27 446.376 745.412 444.329 744.936 442.207C744.461 440.085 742.547 438.692 740.662 439.095C703.071 447.135 667.881 461.065 638.897 479.38C637.251 480.419 636.757 482.796 637.791 484.69C638.624 486.213 640.193 486.958 641.632 486.65Z" fill="#BBBABD"/>
<path d="M885.525 423.514C841.617 413.157 789.046 413.535 737.494 424.577C697.752 433.09 660.132 447.55 628.705 466.394C627.037 467.394 626.495 469.76 627.495 471.679C628.494 473.596 630.657 474.343 632.324 473.341C663.17 454.847 700.133 440.646 739.217 432.274C789.878 421.422 841.46 421.032 884.461 431.174C884.939 431.288 885.41 431.288 885.853 431.193C887.185 430.908 888.252 429.753 888.472 428.164C888.767 426.05 887.447 423.967 885.525 423.514Z" fill="#BBBABD"/>
<path d="M628.553 457.018C660.77 439.472 696.93 426.327 736.03 417.949C786.126 407.215 836.137 405.576 880.656 413.209C881.069 413.28 881.47 413.269 881.85 413.187C883.254 412.886 884.349 411.621 884.493 409.937C884.677 407.799 883.257 405.796 881.32 405.464C836.009 397.695 785.173 399.35 734.306 410.249C694.624 418.752 657.903 432.105 625.161 449.937C623.457 450.865 622.836 453.203 623.772 455.158C624.708 457.114 626.854 457.945 628.553 457.018Z" fill="#BBBABD"/>
<path d="M624.916 441.146C657.846 424.526 694.156 411.897 732.838 403.606C782.06 393.056 831.907 390.454 876.99 396.082C877.351 396.128 877.702 396.11 878.038 396.038C879.495 395.726 880.608 394.376 880.691 392.626C880.792 390.475 879.302 388.534 877.36 388.292C831.583 382.577 781.012 385.209 731.115 395.904C691.916 404.305 655.103 417.113 621.698 433.973C619.969 434.846 619.287 437.159 620.175 439.14C621.063 441.121 623.186 442.02 624.916 441.146Z" fill="#BBBABD"/>
<path d="M873.572 371.701C827.549 367.582 777.199 370.973 727.964 381.51C726.078 381.913 724.936 383.961 725.412 386.084C725.887 388.208 727.801 389.602 729.686 389.199C778.318 378.791 828.022 375.438 873.422 379.502C873.746 379.531 874.061 379.51 874.36 379.446C875.859 379.125 876.982 377.711 877.016 375.916C877.057 373.763 875.516 371.875 873.572 371.701Z" fill="#BBBABD"/>
<path d="M628.805 413.62C627.038 414.403 626.262 416.67 627.073 418.684C627.791 420.471 629.516 421.458 631.13 421.113C631.337 421.069 631.54 421.003 631.74 420.914C656.946 409.753 683.93 400.542 711.941 393.537C713.811 393.068 714.895 390.98 714.363 388.869C713.829 386.76 711.822 385.441 710.013 385.896C681.658 392.988 654.335 402.316 628.805 413.62Z" fill="#BBBABD"/>
<path d="M617.956 410.172C651.726 394.993 688.233 383.141 726.461 374.944C775.316 364.469 823.584 360.594 869.924 363.429C870.216 363.446 870.501 363.424 870.773 363.366C872.305 363.038 873.436 361.565 873.429 359.728C873.421 357.565 871.838 355.716 869.892 355.596C822.982 352.727 774.145 356.644 724.737 367.238C686.084 375.526 649.161 387.515 614.993 402.872C613.229 403.665 612.462 405.942 613.281 407.957C614.099 409.974 616.19 410.965 617.956 410.172Z" fill="#BBBABD"/>
<path d="M615.669 394.47C649.438 380.064 685.638 368.667 723.266 360.597C771.578 350.236 819.548 345.856 865.841 347.579C866.109 347.588 866.366 347.565 866.614 347.512C868.175 347.177 869.314 345.658 869.27 343.789C869.219 341.624 867.602 339.811 865.659 339.738C818.846 337.996 770.359 342.421 721.543 352.89C683.53 361.042 646.947 372.559 612.816 387.122C611.038 387.88 610.236 390.14 611.023 392.169C611.811 394.198 613.886 395.231 615.669 394.47Z" fill="#BBBABD"/>
<path d="M614.957 378.316C648.235 364.872 683.603 354.09 720.077 346.266C767.291 336.139 814.399 331.323 860.093 331.955C860.335 331.958 860.568 331.934 860.793 331.886C862.383 331.545 863.525 329.978 863.445 328.08C863.354 325.914 861.705 324.135 859.762 324.108C813.599 323.472 766.023 328.334 718.354 338.558C681.533 346.456 645.823 357.344 612.215 370.921C610.424 371.644 609.585 373.886 610.343 375.929C611.099 377.971 613.167 379.045 614.957 378.316Z" fill="#BBBABD"/>
<path d="M615.985 361.689C648.166 349.396 682.113 339.381 716.883 331.922C762.436 322.15 808.059 317 852.485 316.616C852.702 316.614 852.912 316.59 853.115 316.547C854.732 316.2 855.878 314.588 855.762 312.662C855.632 310.495 853.953 308.751 852.013 308.768C807.165 309.156 761.122 314.352 715.16 324.212C680.081 331.737 645.829 341.842 613.353 354.249C611.549 354.938 610.676 357.163 611.403 359.217C612.13 361.271 614.17 362.38 615.985 361.689Z" fill="#BBBABD"/>
<path d="M753.416 306.092C753.792 308.233 755.644 309.732 757.552 309.44C786.103 305.074 814.787 302.41 842.807 301.52C842.998 301.515 843.183 301.492 843.363 301.453C845.01 301.101 846.158 299.445 846.004 297.498C845.833 295.338 844.125 293.636 842.189 293.698C813.92 294.596 784.985 297.283 756.188 301.686C754.276 301.974 753.039 303.95 753.416 306.092Z" fill="#BBBABD"/>
<path d="M711.969 309.972C686.477 315.437 661.245 322.218 636.972 330.13C635.138 330.727 634.176 332.898 634.823 334.98C635.433 336.943 637.256 338.124 639 337.75C639.105 337.727 639.21 337.699 639.313 337.665C663.384 329.82 688.408 323.094 713.692 317.675C720.209 316.278 726.827 314.951 733.364 313.729C735.305 313.389 736.448 311.355 736.016 309.219C735.585 307.084 733.698 305.639 731.801 305.993C725.212 307.226 718.539 308.564 711.969 309.972Z" fill="#BBBABD"/>
<path d="M624.366 326.922C652.16 317.539 681.142 309.585 710.507 303.283C745.227 295.832 780.329 290.719 814.839 288.088C814.981 288.077 815.121 288.058 815.257 288.029C816.961 287.662 818.112 285.909 817.883 283.906C817.637 281.743 815.873 280.108 813.944 280.255C779.156 282.907 743.775 288.059 708.784 295.569C679.19 301.92 649.98 309.937 621.964 319.395C620.136 320.012 619.192 322.197 619.855 324.276C620.518 326.354 622.528 327.542 624.366 326.922Z" fill="#BBBABD"/>
<path d="M632.802 308.563C657.024 300.96 682.093 294.359 707.315 288.946C735.365 282.925 763.789 278.327 791.796 275.276C791.904 275.264 792.01 275.247 792.114 275.224C793.859 274.85 795.012 273.025 794.727 270.989C794.424 268.832 792.622 267.251 790.7 267.461C762.483 270.534 733.848 275.168 705.591 281.233C680.184 286.686 654.927 293.335 630.525 300.995C628.685 301.573 627.702 303.735 628.331 305.825C628.961 307.916 630.98 309.139 632.802 308.563Z" fill="#BBBABD"/>
<path d="M694.895 268.5C693.014 268.919 691.885 270.982 692.375 273.105C692.862 275.22 694.77 276.598 696.643 276.196C696.652 276.194 696.661 276.193 696.669 276.191C729.321 268.902 762.72 263.397 795.558 259.918C795.669 259.906 795.778 259.889 795.885 259.866C797.627 259.492 798.78 257.678 798.499 255.647C798.202 253.492 796.402 251.91 794.481 252.113C763.923 255.352 732.948 260.312 702.414 266.856C699.9 267.394 697.394 267.942 694.895 268.5Z" fill="#BBBABD"/>
<path d="M654.146 286.87C654.204 286.858 654.264 286.844 654.323 286.827C663.194 284.385 672.264 282.043 681.278 279.867C683.151 279.414 684.248 277.337 683.729 275.226C683.211 273.115 681.265 271.756 679.397 272.222C670.319 274.414 661.187 276.772 652.252 279.232C650.394 279.744 649.351 281.859 649.923 283.956C650.477 285.987 652.341 287.256 654.146 286.87Z" fill="#BBBABD"/>
<path d="M710.047 258.322C728.887 254.481 747.993 251.203 766.834 248.574C766.91 248.564 766.984 248.55 767.058 248.534C768.843 248.152 769.995 246.266 769.655 244.206C769.301 242.059 767.464 240.536 765.553 240.803C746.585 243.448 727.35 246.75 708.383 250.615C706.558 251.001 705.336 253.038 705.794 255.166C706.253 257.294 708.157 258.707 710.047 258.322Z" fill="#BBBABD"/>
<path d="M667.463 268.108C667.501 268.1 667.54 268.091 667.578 268.081C677.725 265.51 688.262 263.041 698.896 260.742C700.779 260.335 701.918 258.286 701.439 256.164C700.96 254.045 699.048 252.657 697.167 253.059C697.165 253.059 697.163 253.06 697.16 253.06C686.455 255.374 675.847 257.86 665.629 260.449C663.762 260.923 662.684 263.015 663.221 265.122C663.749 267.187 665.631 268.5 667.463 268.108Z" fill="#BBBABD"/>
<path fill-rule="evenodd" clip-rule="evenodd" d="M94.8073 262.762C97.3623 261.792 100.101 261.38 102.901 261.691C105.277 261.954 107.669 262.127 110.024 262.499C112.581 262.905 114.823 262.322 116.685 260.776C118.925 258.916 121.097 256.98 122.548 254.44C124.146 251.645 126.341 249.237 128.783 247.041C130.466 245.528 132.662 245.757 134.469 246.366C136.044 246.898 135.09 248.599 135.097 249.813C135.102 250.749 135.016 251.58 134.37 252.406C133.92 252.978 133.53 253.836 134.543 254.705C137.069 252.808 137.047 249.775 138.442 247.437C139.871 245.038 140.346 242.201 142.421 239.836C141.39 245.929 138.649 251.305 136.675 257.075C137.974 256.884 138.162 256.147 138.55 255.604C142.165 250.525 144.447 244.952 145.73 239.004C146.023 237.641 146.177 236.049 147.862 235.604C149.739 235.107 151.449 233.946 153.529 234.155C154.557 237.197 153.852 240.363 154.339 243.49C156.866 243.039 157.663 240.695 159.828 240.09C161.274 246.193 156.512 250.916 155.814 256.689C157.268 255.849 157.613 254.685 158.181 253.664C161.389 247.902 162.987 241.711 163.761 235.316C163.903 234.137 163.866 232.724 164.777 232.033C167.185 230.208 169.82 228.4 173.169 228.915C175.045 229.203 176.636 228.914 178.267 228.234C179.97 227.524 181.667 226.805 183.382 226.118C185.358 225.325 187.383 224.732 189.583 225.028C192.386 225.406 193.046 225.969 193.11 228.599C193.205 232.34 192.979 236.079 192.831 239.822C192.654 244.248 192.099 248.424 189.44 252.318C187.32 255.421 185.876 258.949 183.108 261.648C179.215 265.442 175.882 269.637 172.491 273.799C171.823 274.619 171.042 275.332 170.057 275.93C166.731 277.944 163.373 279.782 159.653 281.198C154.912 283.004 150.417 285.388 145.874 287.625C141.686 289.686 137.856 292.564 133.219 293.591C129.297 294.459 125.501 295.519 121.793 296.936L121.801 296.946C123.427 296.853 125.023 296.609 126.631 296.352C129.214 295.942 131.99 294.612 134.388 295.555C137.729 296.869 140.37 295.605 143.281 294.793C144.689 294.401 146 293.605 147.59 293.82C148.889 293.998 149.365 294.774 148.578 295.696C148.123 296.228 147.512 296.694 146.879 297.036C142.084 299.628 137.938 303.118 133.032 305.576C135.68 305.123 137.836 303.707 140.188 302.694C142.58 301.664 144.475 299.662 147.583 299.226C147.08 301.127 145.664 301.964 144.686 303.092C143.704 304.229 142.041 304.821 141.629 306.407C140.875 306.207 140.395 306.479 140.139 307.145C139.187 307.352 138.42 307.812 137.896 308.592C137.448 308.65 137.035 308.742 137.155 309.307C136.194 309.143 135.573 309.664 134.64 310.59C135.956 310.432 136.678 310.109 137.168 309.319C137.622 309.266 138.043 309.185 137.914 308.606C139.093 308.707 139.829 308.211 140.16 307.168C140.864 307.287 141.369 307.053 141.648 306.432C142.79 305.743 143.934 305.054 144.951 304.442C147.881 305.427 149.001 307.973 150.832 309.822C152.631 311.645 151.843 314.432 149.429 315.591C147.244 316.638 145.089 317.679 142.692 318.422C139.193 319.505 135.981 321.392 132.153 323.165C133.683 323.588 134.366 323.268 135.085 323.06C139.652 321.744 143.967 319.827 148.402 318.196C151.967 316.887 153.253 317.227 154.895 320.417C155.356 321.31 156.131 321.847 156.753 322.554C158.075 324.06 158.099 328.2 156.603 329.508C153.837 331.93 150.679 333.617 146.726 333.835C145.292 333.912 143.571 333.518 142.276 334.922C144.773 335.151 147.02 335.381 149.274 335.553C151.66 335.735 154.064 335.752 156.434 336.042C159.74 336.448 160.241 337.62 158.546 340.312C158.218 340.836 157.554 341.466 158.432 342.228C159.467 341.951 160.531 341.596 161.629 341.386C163.25 341.08 164.62 341.386 165.071 343.111C165.843 346.067 168.182 347.908 170.412 349.886C174.712 353.708 175.041 358.144 171.566 362.614C171.021 363.317 170.082 363.874 170.219 365.21C171.66 364.674 172.518 363.726 173.398 362.829C178.733 357.407 183.693 351.714 187.946 345.507C188.757 344.323 189.703 343.204 191.098 342.549C191.948 342.149 192.9 342.143 193.485 342.862C193.868 343.333 194.657 343.738 194.211 344.648C192.56 348.021 192.95 351.73 192.276 355.266C192.009 356.666 191.628 358.066 192.06 359.913C194.565 355.581 195.378 351.26 196.187 346.946C196.744 343.979 196.889 340.675 198.71 338.312C201.318 334.929 204.178 331.689 206.759 328.263C207.224 327.646 208.128 327.251 209.043 327.15C209.988 327.043 210.633 327.139 210.939 328.245C211.372 329.805 211.084 331.388 211.301 333.319C213.668 329.614 216.643 328.027 220.901 329.544C226.241 328.6 226.15 333.238 228.141 335.846C228.386 332.884 228.276 330.095 228.3 327.31C228.318 325.296 229.138 323.528 231.36 322.936C236.517 321.564 241.651 319.867 247.17 321.495C249.423 322.161 249.816 322.353 249.508 324.473C249.352 325.547 249.456 326.703 248.182 327.558C247.522 328.001 246.705 329.104 247.546 330.418C250.669 328.373 253.26 326.016 255.732 323.546C258.5 320.781 261.847 318.772 265.367 316.955C266.778 316.23 268.085 315.989 269.719 316.992C261.596 325.622 256.216 335.378 253.374 346.819C254.121 346.411 254.432 346.345 254.521 346.175C254.911 345.447 255.256 344.695 255.585 343.938C258.661 336.841 263.243 330.583 268.587 324.857C271.615 321.609 275.588 319.612 280.564 320.079C284.82 320.479 286.724 323.204 285.692 327.109C285.332 328.469 284.557 329.353 283.704 330.334C282.697 331.492 281.628 332.555 280.913 333.981C278.412 338.951 278.821 343.754 281.311 348.549C282.868 351.546 282.944 354.52 281.451 357.596C280.562 359.426 279.274 360.974 278.004 362.55C272.625 369.23 265.673 374.567 259.871 380.883C256.993 384.012 253.233 386.145 249.994 388.858C249.609 389.181 249.239 389.459 248.687 389.409C244.431 389.02 240.945 391.127 237.158 392.344C235.369 392.918 233.682 393.862 231.652 393.942C223.101 394.279 214.614 394.421 206.07 393.164C200.396 392.329 195.731 390.324 191.756 386.649C190.007 385.03 188.292 383.382 186.054 381.267C187.007 384.577 189.03 386.454 190.938 388.391C193.137 390.624 195.428 392.782 197.559 395.068C199.208 396.839 198.63 398.184 196.172 398.625C195.809 398.689 195.411 398.579 195.047 398.641C190.108 399.481 185.296 397.975 180.395 397.963C176.869 397.956 173.343 397.528 169.649 397.276C170.363 399.095 172.003 398.391 172.996 399.038C173.926 399.645 174.4 400.367 174.069 401.365C173.805 402.163 173.311 402.864 172.185 402.651C170.773 402.387 169.407 402.748 168.089 403.064C161.758 404.577 155.332 404.129 148.919 403.987C147.043 403.945 145.335 402.895 143.392 403.14C142.776 403.218 142.579 402.669 142.275 402.34C140.834 400.797 139.831 399.131 140.221 396.938C140.466 395.561 140.737 394.093 140.477 392.754C140.113 390.88 140.805 389.636 142.235 388.494C142.997 387.887 143.736 387.22 144.335 386.477C146.407 383.906 148.522 381.339 148.78 377.868C147.264 380.597 144.227 382.01 142.515 384.6C141.398 386.286 139.9 388.043 137.095 387.041C137.521 385.04 140.339 384.467 140.33 382.02C138.326 382.756 136.799 383.718 135.818 384.981C134.947 386.096 133.79 386.737 132.7 387.41C129.136 389.615 124.347 389.108 122.441 385.944C119.716 381.425 116.439 377.162 114.663 372.147C113.38 368.533 112.422 364.707 110.081 361.563C108.508 359.445 108.869 357.925 109.925 355.854C113.463 348.896 117.579 342.266 122.291 335.945C122.481 335.811 122.714 335.709 122.851 335.54C123.108 335.227 123.675 334.842 123.225 334.484C122.818 334.162 122.408 334.714 122.042 334.942C121.868 335.049 121.792 335.294 121.671 335.476C120.268 335.963 119.305 337.101 118.881 338.198C116.902 343.339 112.398 343.588 107.659 343.548C107.407 343.545 107.155 343.58 106.905 343.585C103.514 343.647 103.07 342.854 104.372 339.776C104.986 338.328 106.433 337.145 106.271 335.311C105.263 335.278 104.386 335.252 103.508 335.218C99.5933 335.067 98.7314 334.576 98.0293 330.906C97.2416 326.79 96.6758 322.669 95.2062 318.663C94.4563 316.615 93.0997 314.569 93.341 312.1C98.0604 311.987 102.349 314.733 107.407 312.853C104.78 311.534 102.129 311.31 99.7309 310.822C95.2076 309.902 92.5929 307.417 90.9602 303.701C89.9404 301.381 90.0616 301.121 92.3031 299.743C99.0121 295.622 105.736 291.528 112.432 287.392C113.68 286.621 115.128 286.042 116.126 284.591C108.596 287.076 102.493 291.477 95.8652 295.062C93.4061 288.92 93.4092 288.928 99.9562 287.544C102.267 287.054 104.61 286.616 106.809 284.612C102.745 285.508 99.1988 286.256 95.67 287.073C89.8991 288.408 86.0513 285.968 85.4623 280.538C85.3477 279.491 85.2411 278.444 85.18 277.393C84.9623 273.416 90.8503 264.264 94.8073 262.762ZM133.631 311.221C133.687 311.269 133.805 311.323 133.861 311.3C134.168 311.169 134.157 311.025 133.834 310.935C133.777 310.918 133.687 311 133.612 311.035C133.616 311.101 133.594 311.189 133.631 311.221ZM132.133 311.97C132.187 312.019 132.305 312.072 132.361 312.051C132.666 311.922 132.658 311.781 132.338 311.687C132.28 311.669 132.19 311.751 132.123 311.783C132.124 311.848 132.097 311.938 132.133 311.97ZM266.483 333.932C267.925 331.157 270.037 328.851 272.233 326.584C273.289 325.497 274.78 324.678 275.091 323.06C275.096 323.057 275.099 323.055 275.103 323.052C275.113 323.04 275.122 323.028 275.13 323.018C275.231 322.94 275.333 322.862 275.436 322.786C275.379 322.803 275.305 322.803 275.269 322.836C275.214 322.886 275.174 322.954 275.13 323.018C275.119 323.027 275.106 323.036 275.097 323.045C275.096 323.051 275.094 323.055 275.092 323.061C270.083 325.735 266.433 329.379 264.717 334.646C266.313 335.188 266.267 334.351 266.483 333.932ZM246.793 331.097C246.879 331.061 246.965 331.02 247.053 330.98C246.964 330.862 246.878 330.745 246.789 330.626C246.702 330.705 246.616 330.786 246.529 330.864C246.619 330.942 246.707 331.019 246.793 331.097ZM149.464 377.143C149.517 377.152 149.688 376.95 149.666 376.886C149.601 376.685 149.468 376.505 149.362 376.318C149.304 376.417 149.246 376.517 149.186 376.618C149.059 376.892 149.148 377.087 149.464 377.143ZM141.055 382.323C141.234 382.086 141.413 381.849 141.593 381.611C141.917 381.579 142.302 381.473 142.051 381.128C141.828 380.821 141.513 381.055 141.325 381.323C141.098 381.523 140.868 381.725 140.642 381.925C140.779 382.057 140.917 382.19 141.055 382.323ZM130.634 312.699C130.688 312.749 130.807 312.804 130.864 312.781C131.172 312.651 131.163 312.506 130.838 312.412C130.782 312.394 130.691 312.477 130.622 312.51C130.623 312.577 130.597 312.667 130.634 312.699ZM129.251 313.52C129.328 313.484 129.404 313.446 129.479 313.408C129.394 313.313 129.31 313.219 129.225 313.124C129.149 313.196 129.073 313.266 128.999 313.336C129.084 313.396 129.167 313.459 129.251 313.52ZM127.717 313.721C124.715 314.958 121.713 316.192 118.71 317.428C121.956 316.909 125.041 315.766 127.717 313.721ZM116.813 318.662C117.012 318.629 117.201 318.544 117.422 318.471C117.269 318.387 117.125 318.242 117.002 318.259C116.839 318.281 116.692 318.424 116.536 318.517C116.63 318.568 116.731 318.675 116.813 318.662ZM113.018 311.972C116.06 313.142 116.06 313.142 118.931 310.685C116.613 310.836 114.827 310.883 113.018 311.972Z" fill="#ADA9BF"/>
<path fill-rule="evenodd" clip-rule="evenodd" d="M250.749 228.496C256.218 233.699 257.12 240.007 256.149 246.843C256.019 247.765 255.389 248.282 254.872 248.904C251.953 252.44 249.034 255.947 247.822 260.413C247.492 261.624 246.363 262.618 245.233 263.339C243.406 264.504 241.418 265.445 239.569 266.579C238.136 267.459 236.491 267.516 234.92 267.767C233.275 268.032 232.603 267.176 233.135 265.68C233.367 265.029 233.819 264.447 234.14 263.821C235.003 262.134 235.6 260.386 235.535 258.453C233.023 262.115 230.092 265.41 227.219 268.75C226.59 269.48 226.007 270.239 225.112 270.681C221.448 272.488 217.886 274.54 214.056 275.968C211.077 277.082 207.845 278.434 204.631 275.774C203.3 274.673 201.426 274.665 199.481 275.734C196.784 277.216 193.748 278.176 190.832 279.3C190.311 279.501 189.618 279.532 189.167 278.772C189.641 277.522 191.201 276.763 191.362 275.273C191.41 274.822 191.731 274.332 191.171 274.055C190.702 273.823 190.136 273.963 189.83 274.377C188.318 276.417 186.247 277.971 184.466 279.779C181.911 282.371 178.791 283.611 174.945 283.336C175.214 281.591 177.41 281.04 177.731 278.88C176.249 279.672 175.295 280.293 174.451 281.155C171.736 283.921 168.422 285.437 164.295 285.145C163.539 285.089 162.686 285.171 162.382 284.36C162.054 283.488 162.48 282.8 163.292 282.288C163.81 281.96 164.274 281.562 164.791 281.234C168.421 278.938 171.93 276.443 175.721 274.403C183.342 270.3 188.498 264.461 191.106 256.683C192.192 253.449 193.666 250.417 195.668 247.576C196.893 245.837 197.433 243.018 199.069 242.351C201.548 241.339 201.373 239.683 201.646 238.12C202.049 235.79 203.013 233.784 204.846 231.965C204.136 238.056 203.423 244.148 202.714 250.239C202.974 250.266 203.235 250.295 203.497 250.323C206.604 241.992 205.762 233.057 207.589 224.6C209.054 224.155 209.796 224.961 210.566 225.753C212.246 227.474 212.272 227.486 214.001 225.837C215.408 224.494 216.862 223.204 218.615 222.255C219.779 221.628 220.759 222.099 221.734 222.754C222.325 223.15 222.634 223.651 222.399 224.232C220.747 228.339 220.677 232.829 218.823 236.882C218.478 237.631 218.134 238.36 218.49 239.671C219.896 234.869 222.361 231.082 225.38 227.48C227.064 225.469 228.861 224.725 231.399 224.752C236.071 224.803 240.677 225.461 245.307 225.924C247.511 226.142 249.213 227.033 250.749 228.496ZM178.173 278.663C178.147 278.719 178.276 278.913 178.339 278.917C178.719 278.936 178.88 278.699 178.956 278.392C178.62 278.297 178.326 278.337 178.173 278.663ZM178.956 278.392C178.956 278.391 178.956 278.389 178.956 278.389C179.111 278.255 179.264 278.122 179.419 277.989C178.977 277.834 178.793 277.938 178.956 278.392ZM193.635 269.512C197.269 267.544 199.707 263.45 200.16 258.553C198.319 260.183 195.193 265.434 193.635 269.512ZM200.075 242.379C199.276 243.139 199.151 244.021 199.466 244.987C198.461 245.438 198.623 246.136 198.953 246.911C199.844 246.434 199.69 245.734 199.538 245.037C200.573 244.29 200.293 243.331 200.075 242.379Z" fill="#ADA9BF"/>
<path fill-rule="evenodd" clip-rule="evenodd" d="M337.572 297.821C336.54 297.504 336.214 296.966 336.526 295.711C337.767 290.712 340.114 286.608 345.377 284.321C346.947 283.639 348.376 282.664 349.823 281.757C351.564 280.664 353.688 280.024 355.156 278.173C352.459 277.827 350.587 279.928 348.114 279.338C351.284 277.299 354.836 275.947 358.025 273.989C351.689 274.649 346.25 277.518 340.595 279.976C341.827 278.589 343.197 277.419 344.584 276.271C349.727 272.011 355.153 268.03 359.243 262.769C360.501 261.152 362.333 260.196 364.48 259.605C369.017 258.355 373.472 259.317 377.9 259.874C380.522 260.204 383.207 260.658 385.615 262.05C387.129 262.923 387.985 263.823 388.246 265.479C388.956 269.963 388.171 274.324 387.149 278.657C386.862 279.869 386.115 281.069 384.879 281.79C382.292 283.302 379.991 285.212 377.189 286.431C372.707 288.38 369.269 291.608 365.969 294.88C361.837 298.977 357.249 301.069 351.186 299.155C349.508 298.625 347.798 298.532 345.988 298.788C343.124 299.191 340.3 298.654 337.572 297.821Z" fill="#ADA9BF"/>
<path fill-rule="evenodd" clip-rule="evenodd" d="M48.807 176.959C52.0349 174.215 58.7757 174.903 61.1254 178.235C62.9279 180.794 64.1306 183.627 65.0883 186.582C65.8014 188.782 65.3245 191.699 67.7314 192.988C70.0444 194.228 69.5542 195.793 69.6947 197.624C69.9436 200.842 67.3711 203.911 69.2043 207.177C69.3071 207.363 68.9674 207.802 68.7759 208.089C68.2505 208.874 67.7993 209.675 67.8176 210.633C71.3834 211.059 75.1076 213.261 76.9748 216.326C80.3856 221.921 83.3897 227.597 82.6076 234.412C82.2093 237.897 80.3938 240.346 76.2745 241.46C72.6552 242.438 69.6644 241.264 67.5171 238.386C64.3722 234.173 62.4161 229.427 60.2353 224.792C58.5636 221.239 59.7121 217.513 62.9226 215.012C63.8478 214.29 64.9162 213.72 65.5752 212.169C63.2337 212.82 61.1464 212.506 59.1031 212.681C55.6771 212.973 53.3242 211.538 51.4773 209.13C49.1538 206.097 47.2256 202.897 46.5361 199.133C45.8642 195.46 44.9614 191.827 44.2407 188.164C43.347 183.604 45.2861 179.953 48.807 176.959Z" fill="#ADA9BF"/>
<path fill-rule="evenodd" clip-rule="evenodd" d="M141.399 140.408C141.266 144.308 138.723 146.89 134.644 147.055C132.869 147.126 131.471 147.317 130.115 148.784C128.329 150.716 125.414 150.397 123.045 149.998C121.322 149.708 121.507 147.606 121.064 146.198C119.918 142.532 119.844 138.575 117.564 135.208C117.198 134.665 117.136 133.843 117.196 133.171C117.565 128.989 117.723 124.766 118.501 120.645C119.404 115.881 123.791 112.582 128.668 112.589C130.277 112.707 132.156 112.895 134.04 112.966C135.751 113.031 136.736 113.924 137.599 115.173C141.472 120.766 142.217 127.024 141.868 133.426C141.747 135.746 141.479 138.076 141.399 140.408Z" fill="#ADA9BF"/>
<path fill-rule="evenodd" clip-rule="evenodd" d="M298.098 314.308C298.343 314.358 298.596 314.393 298.831 314.471C300.777 315.136 302.472 314.758 304.132 313.615C309.507 309.909 315.695 308.764 322.236 308.82C323.51 308.83 324.781 308.78 326.054 308.758C326.048 308.61 326.043 308.464 326.038 308.316C324.819 307.908 323.601 307.502 322.381 307.095C327.941 306.308 333.348 306.182 338.561 307.98C338.618 308.271 338.678 308.562 338.737 308.855C335.785 310.409 332.876 312.042 329.869 313.498C326.575 315.094 322.776 315.479 319.483 317.19C317.697 318.117 316.281 319.404 314.699 320.52C311.427 322.83 308.665 325.605 306.698 328.985C305.468 331.094 304.248 333.219 303.229 335.419C301.92 338.247 299.359 339.993 296.964 341.823C295.201 343.169 293.48 342.597 292.433 340.676C291.224 338.461 290.83 336.039 290.49 333.606C290.185 331.422 290.181 329.068 288.988 327.187C287.347 324.598 287.696 322.249 288.61 319.595C291.295 311.772 292.63 313.21 298.098 314.308Z" fill="#ADA9BF"/>
<path fill-rule="evenodd" clip-rule="evenodd" d="M147.792 205.91C148.538 208.843 148.174 211.565 145.447 213.802C143.219 215.628 141.829 217.921 141.273 220.828C140.762 223.5 139.669 226.187 137.754 228.115C133.241 226.639 132.409 223.122 131.738 219.475C130.748 214.098 130.332 208.642 128.381 203.404C126.757 199.048 128.143 194.832 130.845 191.185C132.172 189.393 133.521 187.597 134.848 185.793C136.947 186.065 138.276 184.306 140.384 184.132C144.077 183.827 144.055 183.511 144.376 186.836C144.501 188.142 144.71 189.468 146.423 189.671C148.412 189.905 149.674 190.714 149.947 192.635C150.178 194.255 150.576 196.041 149.437 197.355C147.148 199.999 146.993 202.773 147.792 205.91Z" fill="#ADA9BF"/>
<path fill-rule="evenodd" clip-rule="evenodd" d="M128.484 189.442C127.334 187.504 126.513 185.63 126.348 183.488C126.222 181.866 126.287 180.036 125.489 178.695C123.985 176.164 124.15 173.565 124.067 170.888C123.929 166.367 124.128 161.775 121.55 157.629C121.071 156.857 120.918 155.88 120.754 154.975C120.518 153.676 121.13 152.959 122.622 153.051C123.124 153.082 123.63 153.112 124.123 153.193C128.686 153.948 133.253 154.847 137.528 152.188C137.662 152.105 137.979 152.278 138.742 152.453C137.408 155.283 138.686 158.428 136.971 161.363C136.17 162.735 136.037 164.671 137.335 165.996C139.141 167.84 139.252 170.027 138.983 172.178C138.69 174.499 137.281 176.703 139.364 179.01C139.877 179.579 139.274 181.018 138.414 181.839C137.628 182.589 136.872 183.34 135.929 183.953C135.355 184.326 134.291 184.705 134.815 185.75C131.648 185.231 131.01 188.65 128.484 189.442Z" fill="#ADA9BF"/>
<path fill-rule="evenodd" clip-rule="evenodd" d="M134.816 185.748C134.84 185.752 134.858 185.752 134.884 185.756C134.873 185.771 134.862 185.786 134.851 185.798C134.845 185.799 134.84 185.8 134.834 185.799C134.824 185.779 134.824 185.766 134.816 185.748Z" fill="#ADA9BF"/>
<path fill-rule="evenodd" clip-rule="evenodd" d="M74.2927 244.644C74.9145 243.04 76.0652 242.076 78.0078 242.465C80.1955 242.902 82.1654 242.327 84.187 241.655C87.2875 240.625 88.6433 241.309 89.9685 244.192C91.3676 247.233 91.6516 250.395 91.3863 252.924C91.3283 254.922 91.2363 256.206 91.2639 257.487C91.3464 261.229 87.6723 263.497 83.9565 262.017C82.4909 261.434 81.5565 260.451 80.8168 259.176C78.9773 256.014 77.0472 252.899 74.137 250.44C73.208 249.655 72.8802 248.747 73.2857 247.618C73.6388 246.633 73.9143 245.621 74.2927 244.644Z" fill="#ADA9BF"/>
<path fill-rule="evenodd" clip-rule="evenodd" d="M239.538 282.841C237.667 283.574 235.884 284.704 234.169 285.738C230.716 287.82 226.616 289.111 223.825 291.951C221.534 294.285 218.774 294.613 215.816 294.95C214.877 295.059 213.978 294.978 213.45 294.264C212.771 293.35 213.323 292.495 213.976 291.738C215.38 290.104 217.079 288.623 218.139 286.817C220.593 282.632 224.348 279.544 227.794 276.173C229.106 274.892 230.646 274.327 232.507 274.236C234.492 274.465 236.501 274.586 238.459 274.953C240.528 275.339 241.64 276.637 241.729 278.642C241.807 280.403 241.871 281.931 239.538 282.841Z" fill="#ADA9BF"/>
<path fill-rule="evenodd" clip-rule="evenodd" d="M225.98 319.002C224.945 319.841 223.964 320.791 223.175 321.832C221.435 324.131 219.002 324.933 216.138 325.121C213.675 325.281 212.713 324.698 212.244 322.415C212.078 321.615 212.026 320.796 211.922 319.986C211.412 317.302 213.306 315.07 213.545 312.531C213.874 309.041 216.115 306.52 218.723 304.307C220.631 302.689 224.306 302.664 225.557 304.28C228.933 308.637 230.818 315.068 225.98 319.002Z" fill="#ADA9BF"/>
<path fill-rule="evenodd" clip-rule="evenodd" d="M248.614 290.665C249.562 294.085 250.655 297.456 253.377 300.083C254.202 300.88 254.377 301.832 253.947 302.632C253.521 303.426 252.431 303.188 251.544 303.113C250.663 303.039 249.882 302.772 249.141 302.363C247.984 301.726 246.862 301.027 245.678 300.435C241.445 298.314 236.725 297.886 232.093 297.167C230.788 296.964 229.366 297.07 228.556 295.909C229.114 294.1 231.141 293.365 231.901 291.219C229.547 291.84 228.346 293.907 225.827 293.376C228.17 291.188 237.704 285.603 240.395 284.808C240.735 284.706 241.099 284.53 241.43 284.565C244.057 284.833 247.913 288.144 248.614 290.665ZM232.896 290.758C232.547 290.658 232.249 290.705 232.101 291.045C232.074 291.105 232.202 291.303 232.268 291.306C232.659 291.33 232.825 291.085 232.906 290.768C233.061 290.638 233.214 290.508 233.369 290.377C232.991 290.268 232.684 290.237 232.896 290.758Z" fill="#ADA9BF"/>
<path fill-rule="evenodd" clip-rule="evenodd" d="M206.462 397.299C209.498 396.187 212.516 395.257 215.876 396.012C218.172 396.528 220.524 396.886 222.874 397.11C223.876 397.205 224.61 397.393 224.802 398.299C225.012 399.303 224.525 399.863 223.44 400.406C220.29 401.986 216.846 402.14 213.47 402.649C211.425 402.869 209.479 401.995 207.492 402.162C205.622 402.321 205.179 401.16 204.809 400.001C204.394 398.695 205.087 397.802 206.462 397.299Z" fill="#ADA9BF"/>
<path fill-rule="evenodd" clip-rule="evenodd" d="M316.381 305.734C318.505 303.467 321.006 302.036 324.375 301.977C328.26 301.91 332.144 301.667 336.018 301.388C338.277 301.227 340.525 301.083 342.769 301.384C343.782 301.52 345.18 301.1 345.553 302.485C345.898 303.771 345.109 304.712 344.099 305.502C342.501 306.75 340.85 307.39 338.705 306.509C336.646 305.664 334.415 305.31 332.172 304.989C326.858 304.229 321.694 305.201 316.381 305.734Z" fill="#ADA9BF"/>
<path fill-rule="evenodd" clip-rule="evenodd" d="M205.906 113.423C205.88 113.811 205.856 114.189 205.836 114.553C205.765 114.766 205.473 114.926 205.432 115.138C204.722 118.803 203.472 122.355 203.106 126.109C202.814 129.098 203.15 132.31 201.75 135.022C200.417 137.606 200.167 140.216 200.567 142.781C200.888 144.837 200.72 146.781 200.458 148.739C199.89 153.03 200.01 157.37 198.266 161.573C197.271 163.972 196.495 166.976 197.672 169.484C199.267 172.872 199.043 176.244 198.023 179.438C197.302 181.692 197.074 183.94 196.581 186.185C196.154 188.134 196.368 190.163 195.868 192.042C194.918 195.612 193.412 199.057 192.476 202.628C192.132 203.944 191.502 204.496 190.332 204.575C188.464 204.7 186.731 205.115 184.93 205.627C181.245 206.675 180.208 205.815 179.908 202.224C179.861 201.641 179.823 201.055 179.821 200.472C179.785 194.273 179.963 188.064 179.668 181.878C179.375 175.741 182.17 171.873 188.398 170.036C188.722 169.94 188.813 169.773 188.479 169.244C187.488 168.726 186.217 168.016 184.898 167.391C184.1 167.013 183.291 166.693 182.968 165.845C181.533 162.098 180.008 158.258 181.602 154.315C183.29 150.138 184.618 146.065 183.952 141.482C183.566 138.829 184.985 137.897 188.075 137.686C189.611 137.58 191.245 137.982 193.099 137.038C190.738 135.546 189.629 132.891 186.368 133.477C185.465 133.639 185.006 132.978 184.653 132.374C182.745 129.097 180.869 125.665 180.759 121.957C180.559 115.172 179.367 108.478 179.179 101.685C179.047 96.9223 180.338 92.9656 183.576 89.4691C184.633 88.3298 186.015 87.4526 187.232 86.47C186.987 86.2036 186.82 86.0003 186.675 85.8243C188.805 84.8286 192.503 83.8068 197.568 84.9732C198.822 85.4091 200.029 86.0374 201.239 86.8209C201.727 87.1371 202.187 87.4845 202.641 87.8408C207.388 93.0888 206.599 103.789 206.045 111.409C205.713 111.95 205.846 112.697 205.906 113.423Z" fill="#ADA9BF"/>
<path fill-rule="evenodd" clip-rule="evenodd" d="M278.354 139.457C277.391 142.078 276.772 142.618 273.806 142.48C271.416 142.37 269.054 142.393 265.997 142.647C267.971 143.97 269.576 144.379 271.134 144.95C272.192 145.337 273.826 145.626 273.9 147.342C274.122 152.442 274.144 157.553 272.161 162.383C270.823 165.643 268.472 168.587 269.065 172.348C266.279 178.326 264.097 184.594 258.448 189.051C255.99 190.989 254.669 193.663 253.685 196.59C252.218 200.954 249.55 204.527 244.539 206.184C240.157 207.632 237.493 205.896 238.208 201.676C238.964 197.218 240.185 192.843 242.233 188.73C243.567 186.049 245.142 183.484 249.019 183.63C249.377 183.644 249.756 183.488 250.105 183.361C251.527 182.841 251.85 181.759 250.862 180.638C250.47 180.193 249.925 179.86 249.435 179.497C244.618 175.926 244.321 174.705 247.179 169.552C248.632 166.932 249.569 164.237 249.656 161.245C249.801 156.213 250.382 151.207 251.382 146.261C251.816 144.125 251.662 141.371 253.589 140.152C255.933 138.668 255.956 136.802 256.127 134.779C256.321 132.471 256.785 130.138 255.521 127.907C255.05 127.074 255.197 126.078 255.3 125.139C255.531 123.045 256.005 120.945 255.94 118.859C255.761 113.148 258.923 109.169 263.342 105.749C263.702 105.469 264.064 105.189 264.427 104.908C265.827 104.307 267.297 103.817 268.798 103.525C273.467 102.615 276.294 104.787 277.872 106.843C277.832 106.883 277.793 106.902 277.753 106.946C278.121 107.336 278.428 107.742 278.737 108.146C279.312 109.153 279.553 109.92 279.553 109.92L280.004 110.09C281.922 113.688 282.146 117.747 282.233 121.809C282.288 124.36 282.5 127.123 281.581 129.426C280.271 132.728 279.564 136.155 278.354 139.457Z" fill="#ADA9BF"/>
<rect width="1360" height="427" transform="translate(27 23)" fill="url(#paint0_linear_3376_29143)" fill-opacity="0.4"/>
</g>
</g>
<defs>
<filter id="filter0_d_3376_29143" x="0" y="0" width="1410" height="470" filterUnits="userSpaceOnUse" color-interpolation-filters="sRGB">
<feFlood flood-opacity="0" result="BackgroundImageFix"/>
<feColorMatrix in="SourceAlpha" type="matrix" values="0 0 0 0 0 0 0 0 0 0 0 0 0 0 0 0 0 0 127 0" result="hardAlpha"/>
<feOffset dx="-2" dy="2"/>
<feGaussianBlur stdDeviation="12.5"/>
<feComposite in2="hardAlpha" operator="out"/>
<feColorMatrix type="matrix" values="0 0 0 0 0.584314 0 0 0 0 0.584314 0 0 0 0 0.584314 0 0 0 0.3 0"/>
<feBlend mode="normal" in2="BackgroundImageFix" result="effect1_dropShadow_3376_29143"/>
<feBlend mode="normal" in="SourceGraphic" in2="effect1_dropShadow_3376_29143" result="shape"/>
</filter>
<linearGradient id="paint0_linear_3376_29143" x1="40.375" y1="427" x2="1479.35" y2="338.405" gradientUnits="userSpaceOnUse">
<stop stop-color="#101D46"/>
<stop offset="0.374863" stop-color="#3A70E4"/>
<stop offset="1" stop-color="#101D46"/>
</linearGradient>
<clipPath id="clip0_3376_29143">
<path d="M27 43C27 31.9543 35.9543 23 47 23H1367C1378.05 23 1387 31.9543 1387 43V423C1387 434.046 1378.05 443 1367 443H47C35.9543 443 27 434.046 27 423V43Z" fill="white"/>
</clipPath>
</defs>
</svg>
