<svg width="20" height="20" viewBox="0 0 20 20" fill="none" xmlns="http://www.w3.org/2000/svg">
<path d="M17.7914 9.25008H10.1497V11.5251H15.5747C15.2997 14.7001 12.6581 16.0584 10.1581 16.0584C6.96641 16.0584 4.16641 13.5417 4.16641 10.0001C4.16641 6.58341 6.83307 3.94175 10.1664 3.94175C12.7414 3.94175 14.2497 5.58341 14.2497 5.58341L15.8331 3.93341C15.8331 3.93341 13.7997 1.66675 10.0831 1.66675C5.34974 1.66675 1.69141 5.66675 1.69141 10.0001C1.69141 14.2084 5.13307 18.3334 10.2081 18.3334C14.6664 18.3334 17.9164 15.2751 17.9164 10.7584C17.9164 9.80008 17.7914 9.25008 17.7914 9.25008Z" fill="#444444"/>
</svg>
