<?xml version="1.0" encoding="UTF-8"?>
<!DOCTYPE svg PUBLIC "-//W3C//DTD SVG 1.1//EN" "http://www.w3.org/Graphics/SVG/1.1/DTD/svg11.dtd">
<svg xmlns="http://www.w3.org/2000/svg" version="1.1" width="55px" height="50px" style="shape-rendering:geometricPrecision; text-rendering:geometricPrecision; image-rendering:optimizeQuality; fill-rule:evenodd; clip-rule:evenodd" xmlns:xlink="http://www.w3.org/1999/xlink">
<g><path style="opacity:0.954" fill="#644FC1" d="M 13.5,4.5 C 17.7259,6.87909 21.5592,9.87909 25,13.5C 25.4935,11.8659 25.6602,10.1992 25.5,8.5C 30.161,8.88245 34.4943,7.88245 38.5,5.5C 41.8187,6.63568 42.8187,8.80235 41.5,12C 38.5945,13.0375 35.7612,14.2042 33,15.5C 31.4415,22.8962 33.4415,24.2295 39,19.5C 41.0084,20.7636 42.1751,22.5969 42.5,25C 40.1825,27.56 37.3492,29.3934 34,30.5C 32.8924,34.0863 32.3924,37.753 32.5,41.5C 30.4012,42.2309 28.4012,42.2309 26.5,41.5C 25.6648,38.8596 25.4981,36.1929 26,33.5C 22.8333,36.6667 19.6667,39.8333 16.5,43C 13.2073,42.7025 11.7073,40.8691 12,37.5C 14.3504,35.3171 16.517,32.9837 18.5,30.5C 16.2387,28.5446 14.2387,26.378 12.5,24C 13.9429,21.2568 15.9429,18.9234 18.5,17C 15.6009,14.7226 12.9342,12.2226 10.5,9.5C 11.9524,8.06028 12.9524,6.39362 13.5,4.5 Z M 24.5,20.5 C 25.224,22.2184 25.8906,24.0517 26.5,26C 24.4324,25.9827 22.7657,24.9827 21.5,23C 22.9423,22.6232 23.9423,21.7899 24.5,20.5 Z"/></g>
</svg>
