<svg width="88" height="89" viewBox="0 0 88 89" fill="none" xmlns="http://www.w3.org/2000/svg">
<path d="M43.1406 49.4158C43.1406 49.6437 43.2312 49.8623 43.3923 50.0234C43.5535 50.1846 43.7721 50.2751 44 50.2751C44.2279 50.2751 44.4465 50.1846 44.6077 50.0234C44.7688 49.8623 44.8594 49.6437 44.8594 49.4158C44.8594 49.1879 44.7688 48.9693 44.6077 48.8081C44.4465 48.6469 44.2279 48.5564 44 48.5564C43.7721 48.5564 43.5535 48.6469 43.3923 48.8081C43.2312 48.9693 43.1406 49.1879 43.1406 49.4158Z" fill="#644FC1"/>
<path d="M53.5137 52.8319C52.9053 53.2865 52.1662 53.5321 51.4067 53.5321H36.1191C35.35 53.5321 34.602 53.2802 33.9896 52.8149L10.385 34.8802C9.93221 34.5361 9.28125 34.859 9.28125 35.4277C9.28125 35.6427 9.38172 35.8452 9.55282 35.9753L33.5168 54.1895C34.1293 54.6551 34.8775 54.9071 35.6468 54.9071H51.8541C52.6133 54.9071 53.3521 54.6617 53.9603 54.2074L78.4423 35.9238C78.6163 35.7938 78.7188 35.5894 78.7188 35.3722C78.7188 34.8055 78.0723 34.4816 77.6183 34.8208L53.5137 52.8319Z" fill="#644FC1"/>
<path d="M62.1 22.5688C61.2163 22.5688 60.5 21.8525 60.5 20.9688V16.0478C60.5 15.1641 59.7837 14.4478 58.9 14.4478H29.1C28.2163 14.4478 27.5 15.1641 27.5 16.0478V20.9688C27.5 21.8525 26.7837 22.5688 25.9 22.5688H7.1C6.21634 22.5688 5.5 23.2852 5.5 24.1688V72.961C5.5 73.8447 6.21634 74.561 7.1 74.561H80.9C81.7837 74.561 82.5 73.8447 82.5 72.961V24.1688C82.5 23.2852 81.7837 22.5688 80.9 22.5688H62.1ZM31.2812 19.829C31.2812 18.9453 31.9976 18.229 32.8813 18.229H55.1187C56.0024 18.229 56.7188 18.9453 56.7188 19.829V20.9603C56.7188 21.8439 56.0024 22.5603 55.1188 22.5603H32.8813C31.9976 22.5603 31.2812 21.8439 31.2812 20.9603V19.829ZM78.7188 69.1798C78.7188 70.0634 78.0024 70.7798 77.1188 70.7798H10.8812C9.99759 70.7798 9.28125 70.0634 9.28125 69.1798V68.186C9.28125 67.3024 9.99759 66.586 10.8812 66.586H77.1188C78.0024 66.586 78.7188 67.3024 78.7188 68.186V69.1798ZM78.7188 63.6024C78.7188 64.4861 78.0024 65.2024 77.1188 65.2024H10.8812C9.99759 65.2024 9.28125 64.4861 9.28125 63.6024V27.9501C9.28125 27.0664 9.99759 26.3501 10.8812 26.3501H77.1188C78.0024 26.3501 78.7188 27.0664 78.7188 27.9501V63.6024Z" fill="#644FC1"/>
</svg>
